<svg xmlns="http://www.w3.org/2000/svg" xmlns:xlink="http://www.w3.org/1999/xlink" viewBox="0 0 100 100"><svg xmlns="http://www.w3.org/2000/svg" fill="none" viewBox="0 0 30 30"><path fill="#FAFAFA" d="M11.88 10.56h6.24v7.14h-6.24z"/><path d="M4.412 7.524a.36.36 0 01-.08-.115l.025-.016.055.131zM6.177 16.98l-.03.014v-.005l.03-.009zM16.676 7.93l.009.008a.286.286 0 01-.131.06l.122-.068zM16.943 7.794a.395.395 0 01-.11.013l.106-.022.004.009z" fill="#BE054B"/><path d="M13.408 16.816l-.047.228-.072.474-.037.585v.622l-.043.56-.085.52v.004l-.12.48-.114.322-.064.06-.004.097-.127.254-.207.352-.246.305-.283.274-.173.127h-.033l-.097.097-.2.11h-.08l-.068.072-.19.08-.347.098-.272.047a44.004 44.004 0 00-7.485 1.44 15 15 0 01-.02-18.01l.148.072.279.18.004.004.009.008.008.004.233.198.254.275.203.283.18.331.004.004.14.352a.564.564 0 01-.016-.105l.12.504a.434.434 0 01-.009-.085l.022.127c-.005-.004-.005-.013-.009-.017l.072.461.03.45-.013.49c-.004.026-.004.047-.008.06l-.056.534-.105.559-.01.072v-.021l-.062.54-.022.516.009.512.034.6.068.665.093.669.146.765.157.694.203.8.466 1.49.296.805.618 1.482.347.266.792.114h.004l.06.005.982.123 1.863.173.402-.18.919-1.308.444-.69.437-.716.385-.698.293-.565zM24.26 23.069l.084-.055-.182.165.097-.11z" fill="#BE054B"/><path d="M26.363 24.789a14.997 14.997 0 01-22.735-.009 42.967 42.967 0 016.932-1.3l.3-.038.068-.012.325-.09.403-.152h.11l.084-.088.22-.12.076-.004.106-.114.28-.212a.735.735 0 00.097-.09l.199-.198.313-.372a.607.607 0 00.094-.12l.21-.33.2-.411.076-.08v-.098l.132-.364.144-.555.097-.584a.69.69 0 00.012-.12l.043-.55v-.644l.034-.5.055-.385.24-1.063.144-.491.055-.06v-.114l.173-.517.064-.064v-.105l.186-.483.62-1.371.326-.64.084-.084v-.085l.288-.512.089-.093.004-.072.36-.6.445-.7.258-.384 1.6.09 1.554.143.533 1.148.314.783.258.686.004.11.055.054.187.56v.12l.05.055.17.571.008.136.047.042.287 1.2.005.148.03.034.084.457.004.165.026.026.12 1.024.025.496v.441l-.034.41-.097.657-.048.673.004.55c-.002.02 0 .04.004.06l.047.505.097.507c.005.018.005.03.009.043l.131.423.225.53.012.025c.005.01.01.02.017.03l.013.025c.008.008.012.017.021.025l.157.275.258.347.317.34.356.3.445.274.38.17c.04.017.082.03.124.042l.19.063.072.03h.045c.23.062.455.121.683.185z" fill="#BE054B"/><path d="M30 15a14.939 14.939 0 01-3.023 9.03c-.36-.106-.724-.207-1.092-.3l-.55-.203-.3-.174-.54-.48-.212-.274-.18-.305-.153-.326-.004-.114-.06-.056-.076-.25v-.122l-.038-.042-.06-.293-.051-.474c0-.01 0-.02-.005-.03l-.004-.529.034-.495v-.021l.004-.017V19.5l.085-.551.055-.61v-.507l-.025-.513-.06-.618-.208-1.3-.16-.732-.187-.72-.21-.693v-.12l-.055-.055-.212-.644-.605-1.545-.364-.824-.42-.868-2.108-.195-2.096-.12-1.02 1.549-.402.666-.088.098v.063l-.703 1.33-.012.02.029-.144.004-.05h.004l.047-.457.021-.62c.004-.025.004-.046.008-.06l.056-.534.097-.49.127-.437c-.004.008-.008.013-.008.017l.012-.06h.005l.016-.102a.294.294 0 01-.012.093l.156-.39.208-.389.212-.309.25-.292.27-.25a.383.383 0 01-.063.043l.097-.072a.19.19 0 01-.03.03l.259-.174.025-.026.008-.004.005-.004.013-.009.262-.135.008-.005.318-.12.36-.084.25-.026a43.47 43.47 0 009.073-1.577A14.953 14.953 0 0130 15z" fill="#BE054B"/><path d="M25.885 23.73l-.55-.204-.3-.173-.54-.48-.212-.275-.18-.305-.152-.326-.005-.114-.06-.055-.076-.25v-.123l-.038-.042-.06-.292-.051-.474c0-.01 0-.02-.004-.03l-.005-.53.034-.494v-.022l.004-.017V19.5l.085-.551.055-.61v-.507l-.025-.513-.06-.618-.208-1.3-.16-.732-.187-.72-.21-.693v-.12l-.055-.055-.212-.644-.605-1.545-.364-.824-.42-.868-2.108-.195-2.096-.12-1.02 1.549-.401.666-.09.098v.063l-.702 1.33-.012.02v.009l-.068.36-.127.54-.161.55-.229.672-.232.614-.293.677-.309.652-.068.131-.046.229-.072.474-.038.584v.622l-.043.56-.084.52v.004l-.12.48-.115.322-.064.06-.004.097-.127.255-.207.351-.246.305-.283.275-.172.126h-.034l-.097.097-.2.11h-.08l-.067.072-.19.08-.348.098-.271.047a44.013 44.013 0 00-7.485 1.44c.199.258.402.512.613.757a42.97 42.97 0 016.932-1.301l.3-.038.068-.013.326-.089.402-.152h.11l.084-.088.22-.12.077-.005.106-.114.279-.212a.729.729 0 00.098-.089l.198-.198.314-.373a.607.607 0 00.093-.12l.211-.33.2-.41.076-.081v-.097l.131-.365.144-.554.097-.584a.69.69 0 00.013-.12l.043-.55v-.645l.033-.5.055-.385.24-1.063.144-.491.056-.06v-.114l.173-.517.063-.063v-.106l.187-.483.62-1.37.325-.64.085-.084v-.085l.288-.512.088-.094.005-.072.36-.6.444-.699.258-.385 1.6.09 1.555.144.533 1.148.313.783.259.685.004.11.055.055.186.56v.12l.051.054.17.571.008.136.047.043.287 1.2.004.148.03.033.085.458.004.165.025.025.12 1.025.025.495v.442l-.033.41-.097.656-.048.674.004.55c-.002.02 0 .04.004.06l.047.504.097.508c.004.017.004.03.008.042l.132.424.224.529.013.025c.004.01.01.02.017.03l.012.025c.009.009.013.017.022.026l.156.275.258.347.318.339.356.3.444.274.381.17c.04.017.081.031.123.042l.19.064.072.03h.045l.682.18c.212-.246.415-.5.614-.759a39.51 39.51 0 00-1.091-.295zm-1.723-.55l.098-.111.084-.055-.182.165z" fill="#FAFAFA"/><path d="M26.363 5.212a42.277 42.277 0 01-8.514 1.443l-.309.03v.013l-.072.013-.004-.013-.34.082a.29.29 0 00-.08.021l-.368.14-.406.2-.03.02a.48.48 0 00-.12.08l-.174.12a.42.42 0 00-.114.081l-.284.25a.498.498 0 00-.114.114l-.228.267a.497.497 0 00-.09.12l-.207.3-.034.076-.008-.004-.195.363-.013.055-.013-.004a.204.204 0 00-.025.076l-.148.356a.627.627 0 00-.043.127l-.126.432.008.004-.017.08h-.012l-.102.521-.009.064-.004-.004-.06.571-.027.674-.042.427h-.005l-.084.466-.106.466-.004.025h-.004l-.162.546-.198.593h.004l-.504 1.232-.31.656-.347.67-.372.672-.406.674-.445.69-.48.69.017.012-.004.009-.017-.013-.263.36-.593-.051-1.964-.22h-.046l-.54-.08-.492-1.186-.288-.792H6.42l-.24-.746-.03.013v-.005l.03-.008-.215-.72-.19-.728-.157-.712-.127-.686-.026.005v-.01h.022L5.4 13.56l-.068-.665-.034-.58-.009-.503.021-.462.055-.457h-.001l.004-.017.106-.563.008-.064.005.005.063-.58.017-.6c0-.04 0-.08-.004-.12l-.026-.369a.712.712 0 00-.008-.14l-.07-.435a.454.454 0 00-.025-.114l-.101-.36h-.004l-.009-.055-.004.004-.157-.42-.017.004-.032-.109-.19-.35-.009-.018-.025-.038-.25-.356a.672.672 0 00-.067-.072l-.2-.22a.5.5 0 00-.114-.114l-.23-.195a.755.755 0 00-.12-.089l-.321-.207-.022-.004c-.198.232-.389.47-.57.715l.147.072.28.18.004.004.009.009.008.004.235.2.253.275.204.283.18.33.004.005.14.351a.563.563 0 01-.016-.105l.12.504a.433.433 0 01-.01-.084l.022.126c-.004-.004-.004-.012-.008-.017l.072.462.03.449-.013.491c-.005.025-.005.046-.009.06l-.055.533-.106.559-.009.072v-.021l-.063.54-.021.517.008.511.034.6.068.665.093.67.147.764.156.694.204.8.465 1.491.297.805.618 1.481.347.267.791.114h.005l.06.004.982.123 1.863.174.402-.18.918-1.308.445-.691.436-.715.386-.699.292-.563.055-.27.158-.633.393-1.236v-.11l.068-.069.204-.533.309-.711.3-.636v-.008l.029-.144.004-.05h.004l.047-.457.022-.62c.004-.026.004-.047.008-.06l.055-.534.098-.492.127-.436c-.005.009-.009.013-.009.017l.013-.06h.004l.017-.102a.297.297 0 01-.013.094l.157-.39.207-.39.212-.309.25-.292.271-.25a.393.393 0 01-.063.043l.097-.072a.195.195 0 01-.03.03l.258-.174.026-.026a.286.286 0 01-.131.06l.12-.068.008.009.009-.004.004-.005.013-.008.262-.136.009-.004.317-.12.36-.084.25-.026a43.469 43.469 0 009.075-1.578c-.2-.262-.406-.514-.618-.762zM4.33 7.409l.026-.017.055.132a.36.36 0 01-.08-.115zm12.503.398l.106-.021.004.008a.395.395 0 01-.11.013z" fill="#FAFAFA"/><path d="M26.363 5.212a42.277 42.277 0 01-8.514 1.444l-.309.03v.012l-.072.013-.004-.013-.339.082a.29.29 0 00-.08.021l-.369.14-.406.2-.03.02a.479.479 0 00-.12.08l-.173.12a.418.418 0 00-.115.081l-.284.25a.498.498 0 00-.114.114l-.228.267a.497.497 0 00-.09.12l-.207.3-.034.076-.008-.004-.195.363-.012.056-.014-.005a.202.202 0 00-.025.077l-.148.355a.628.628 0 00-.043.128l-.126.431.008.004-.017.08h-.012l-.102.521-.009.064-.004-.004-.06.572-.027.673-.042.428h-.005l-.084.465-.106.466-.004.025h-.004l-.162.546-.198.593h.004l-.504 1.232-.309.656-.348.67-.372.673-.406.673-.445.69-.48.69.017.012-.004.009-.017-.013-.263.36-.593-.05-1.964-.221h-.046l-.54-.08-.492-1.185-.288-.792H6.42l-.24-.747-.215-.72-.19-.728-.157-.712-.127-.686-.026.005v-.01h.022L5.4 13.56l-.068-.664-.034-.58-.009-.504.021-.461.056-.458h-.002l.004-.017.106-.563.009-.063.004.004.063-.58.017-.6c0-.04 0-.08-.004-.12l-.026-.369a.71.71 0 00-.008-.14l-.07-.435a.455.455 0 00-.024-.114l-.102-.36H5.33l-.008-.055-.005.004-.157-.42-.017.005-.032-.11-.19-.35-.009-.018-.025-.038-.25-.355a.672.672 0 00-.067-.072l-.2-.22a.5.5 0 00-.114-.115l-.23-.195a.755.755 0 00-.12-.088l-.32-.208-.022-.004a14.994 14.994 0 0122.8-.085z" fill="#BE054B"/></svg></svg>
