<?xml version="1.0" encoding="UTF-8"?><!DOCTYPE svg PUBLIC "-//W3C//DTD SVG 1.1//EN" "http://www.w3.org/Graphics/SVG/1.1/DTD/svg11.dtd"><svg viewBox="0 0 100 100" xmlns="http://www.w3.org/2000/svg" xmlns:xlink="http://www.w3.org/1999/xlink"><style>:root>svg{display:none}:root>svg:target{display:block}</style><svg viewBox="0 0 10000 10000" shape-rendering="geometricPrecision" text-rendering="geometricPrecision" image-rendering="optimizeQuality" fill-rule="evenodd" clip-rule="evenodd" id="21" xmlns="http://www.w3.org/2000/svg"><defs><style>.aastr0{stroke:#01a3e0;stroke-width:20;stroke-miterlimit:22.9256}.aafil0{fill:#01a3e0}.aafil1{fill:#feffff}</style></defs><g id="aaСлой_x0020_1"><rect class="aafil0 aastr0" x="1253.3" y="1448.96" width="7355.31" height="7220.59" rx="1527.44" ry="1527.44"/><g id="aa_1272820211216"><path class="aafil1" d="M2390.34 5548.53c54.52 487.3 335.46 775.88 836 819.52 506.91 44.22 1147.6 11.4 1668.49 11.4 819.63 0 1235.44 130.62 1241.9-430.03 5.86-507.42 31.82-1162.17-9.96-1651.05-42.25-495.01-342.09-794.22-831.86-838.33-310.75-27.99-2050.54-24.66-2514.81-11.18-306.14 8.85-398.72 128.59-403.55 431.29-7.63 477.06-36.78 1216.21 13.79 1668.38zM7317.85 3500.71c-107.95 47.61-458.09 352.89-571.64 446.13-200.58 164.71-392.34 277.1-401.3 637.89-26.96 1087.23-47.74 937.31 881.27 1689.44 48.36 39.12 87.48 78.23 180.14 71.63 302.7-21.64 194.17-575.13 194.56-1102.6l-2.61-1551.4c-13.87-147.31-125.2-259.53-280.42-191.09z"/></g></g></svg><svg fill="none" viewBox="0 0 24 46" id="about-company-slider-arrow" xmlns="http://www.w3.org/2000/svg"><path d="M1.419 21.56l21.88 22.29a1.029 1.029 0 01-.005 1.432.984.984 0 01-1.406.005L.008 22.998l1.411-1.438z" fill="#CDCCD5"/><path d="M23.287.719c.386.394.392 1.038.005 1.432L1.412 24.44 0 23.002 21.88.713a.984.984 0 011.407.006z" fill="#CDCCD5"/></svg><svg fill="none" viewBox="0 0 24 46" id="about-company-slider-arrow-right" xmlns="http://www.w3.org/2000/svg"><path fill-rule="evenodd" clip-rule="evenodd" d="M22.583 21.566l.006-.007L24 22.997 2.12 45.286a.984.984 0 01-1.407-.005 1.03 1.03 0 01-.005-1.433l20.463-20.845L.701 2.151A1.029 1.029 0 01.706.718.984.984 0 012.112.713l20.47 20.853z" fill="#CDCCD5"/></svg><svg fill="none" viewBox="0 0 17 8" id="breadcrumb-arrow" xmlns="http://www.w3.org/2000/svg"><path d="M16.354 4.354a.5.5 0 000-.708L13.172.464a.5.5 0 10-.708.708L15.293 4l-2.829 2.828a.5.5 0 10.708.708l3.182-3.182zM0 4.5h16v-1H0v1z" fill="#77738C"/></svg><svg fill="none" viewBox="0 0 75 8" id="card-arrow" xmlns="http://www.w3.org/2000/svg"><path d="M74.354 4.354a.5.5 0 000-.708L71.172.464a.5.5 0 10-.707.708L73.293 4l-2.829 2.828a.5.5 0 10.708.708l3.182-3.182zM0 4.5h74v-1H0v1z" fill="#07012E"/></svg><svg fill="none" viewBox="0 0 28 14" id="catalog-filter-arrow" xmlns="http://www.w3.org/2000/svg"><path fill="#77738C" d="M13.123 13.172L27.126 0 28 .823 13.998 13.995z"/><path fill="#77738C" d="M.875.004l14.002 13.172-.875.823L0 .827z"/></svg><svg fill="none" viewBox="0 0 44 44" id="chat-btn-icon" xmlns="http://www.w3.org/2000/svg"><path fill-rule="evenodd" clip-rule="evenodd" d="M22 44c12.15 0 22-9.85 22-22S34.15 0 22 0 0 9.85 0 22a21.9 21.9 0 004.004 12.658l-2.488 9.286 9.9-2.653A21.901 21.901 0 0022 44z" fill="#FAFAFA"/><path fill-rule="evenodd" clip-rule="evenodd" d="M5.09 34.464L2.93 42.53l8.615-2.309.353.194A20.901 20.901 0 0022 43c11.598 0 21-9.402 21-21S33.598 1 22 1 1 10.402 1 22a20.9 20.9 0 003.821 12.082l.27.382zm-3.574 9.48l2.488-9.286A21.9 21.9 0 010 22C0 9.85 9.85 0 22 0s22 9.85 22 22-9.85 22-22 22c-3.837 0-7.444-.982-10.584-2.709l-9.9 2.653z" fill="#BE054B"/><path d="M22.966 26.793h-3.27c.012-1.125.112-2.045.3-2.76.198-.726.52-1.389.966-1.986.445-.598 1.037-1.277 1.775-2.04a78.82 78.82 0 001.477-1.546 6.777 6.777 0 001.107-1.582c.281-.574.422-1.26.422-2.057 0-.808-.146-1.506-.44-2.091a3.01 3.01 0 00-1.265-1.354c-.55-.317-1.236-.475-2.057-.475-.68 0-1.324.123-1.933.37a3.324 3.324 0 00-1.477 1.142c-.375.504-.568 1.166-.58 1.986H14.74c.024-1.324.352-2.46.985-3.41.644-.949 1.511-1.676 2.601-2.18 1.09-.503 2.309-.755 3.656-.755 1.489 0 2.754.27 3.797.808 1.055.54 1.858 1.313 2.409 2.32.55.997.826 2.18.826 3.551 0 1.055-.217 2.028-.65 2.918a11.202 11.202 0 01-1.636 2.479 29.146 29.146 0 01-2.126 2.215c-.645.597-1.078 1.271-1.301 2.021a8.486 8.486 0 00-.334 2.426zm-3.41 5.572c0-.527.164-.972.492-1.336.328-.363.803-.545 1.424-.545.633 0 1.113.182 1.441.545.328.364.492.809.492 1.336 0 .504-.164.938-.492 1.301-.328.363-.808.545-1.441.545-.621 0-1.096-.182-1.424-.545a1.874 1.874 0 01-.492-1.3z" fill="#BE054B"/></svg><svg fill="none" viewBox="0 0 16 14" id="checked-icon" xmlns="http://www.w3.org/2000/svg"><path d="M5.085 11.046L1.292 6.692 0 8.164 5.085 14 16 1.472 14.717 0 5.085 11.046z" fill="#FAFAFA"/></svg><svg fill="none" viewBox="0 0 16 16" id="clear-filter-icon" xmlns="http://www.w3.org/2000/svg"><path d="M15.248.231l.751.75L.981 16l-.75-.751L15.248.231z" fill="#07012E"/><path d="M16 15.249l-.751.75L.23.983.98.23 16 15.249z" fill="#07012E"/></svg><svg fill="none" viewBox="0 0 28 20" id="filter-btn-icon" xmlns="http://www.w3.org/2000/svg"><path d="M0 2h28v2H0V2zM0 9h28v2H0V9zM0 16h28v2H0v-2z" fill="#BE054B"/><path d="M8 3a2 2 0 11-4 0 2 2 0 014 0z" fill="#FAFAFA"/><path fill-rule="evenodd" clip-rule="evenodd" d="M6 2a1 1 0 100 2 1 1 0 000-2zM3 3a3 3 0 116 0 3 3 0 01-6 0z" fill="#BE054B"/><path d="M24 10a2 2 0 11-4 0 2 2 0 014 0z" fill="#FAFAFA"/><path fill-rule="evenodd" clip-rule="evenodd" d="M22 9a1 1 0 100 2 1 1 0 000-2zm-3 1a3 3 0 116 0 3 3 0 01-6 0z" fill="#BE054B"/><path d="M8 17a2 2 0 11-4 0 2 2 0 014 0z" fill="#FAFAFA"/><path fill-rule="evenodd" clip-rule="evenodd" d="M6 16a1 1 0 100 2 1 1 0 000-2zm-3 1a3 3 0 116 0 3 3 0 01-6 0z" fill="#BE054B"/></svg><svg fill="none" viewBox="0 0 20 20" id="gear-icon" xmlns="http://www.w3.org/2000/svg"><path fill-rule="evenodd" clip-rule="evenodd" d="M11.566 1.968L10.91 0H9.09l-.655 1.968c-.376.072-.742.17-1.097.293L5.79.886l-1.575.909.416 2.032a8.23 8.23 0 00-.802.802l-2.034-.416-.909 1.574L2.261 7.34c-.122.355-.22.72-.293 1.096L0 9.09v1.818l1.968.656c.073.375.17.741.293 1.096L.885 14.213l.909 1.574 2.034-.416c.248.285.516.553.801.801l-.416 2.034 1.575.909 1.551-1.376c.355.122.721.22 1.096.293L9.091 20h1.819l.655-1.968a8.108 8.108 0 001.097-.293l1.552 1.376 1.575-.909-.417-2.035c.285-.248.552-.515.8-.8l2.034.416.909-1.574-1.376-1.551a8.12 8.12 0 00.293-1.097L20 10.909V9.091l-1.968-.656a8.112 8.112 0 00-.293-1.097l1.375-1.55-.909-1.575-2.033.416a8.238 8.238 0 00-.8-.8l.416-2.035-1.575-.909-1.551 1.376a8.125 8.125 0 00-1.097-.293z" fill="#BE054B"/><path d="M14.444 10a4.444 4.444 0 11-8.888 0 4.444 4.444 0 018.889 0z" fill="#FAFAFA"/></svg><svg fill="none" viewBox="0 0 32 32" id="icon-auth" xmlns="http://www.w3.org/2000/svg"><circle cx="16" cy="16" r="15" stroke="#07012E" stroke-width="2"/><path d="M21.857 13.715a5.857 5.857 0 11-11.714 0 5.857 5.857 0 0111.714 0z" stroke="#07012E" stroke-width="2"/><mask id="ala" fill="#fff"><path fill-rule="evenodd" clip-rule="evenodd" d="M3.744 26.287A15.966 15.966 0 0116 20.572c4.92 0 9.321 2.22 12.256 5.715A15.966 15.966 0 0116 32c-4.92 0-9.321-2.22-12.256-5.714z"/></mask><path d="M3.744 26.287L2.212 25l-1.08 1.287 1.08 1.286 1.532-1.286zm24.512 0l1.532 1.286 1.08-1.286L29.788 25l-1.532 1.287zM5.275 27.573c2.571-3.06 6.42-5 10.725-5v-4A17.966 17.966 0 002.212 25l3.063 2.573zm10.725-5c4.304 0 8.154 1.94 10.725 5L29.788 25A17.966 17.966 0 0016 18.572v4zM26.725 25c-2.571 3.06-6.42 5-10.725 5v4a17.966 17.966 0 0013.788-6.427L26.725 25zM16 30c-4.304 0-8.154-1.94-10.725-5l-3.063 2.573A17.966 17.966 0 0016 34.001v-4z" fill="#07012E" mask="url(#ala)"/></svg><svg fill="none" viewBox="0 0 28 28" id="icon-correct" xmlns="http://www.w3.org/2000/svg"><path fill-rule="evenodd" clip-rule="evenodd" d="M1 14c0 7.18 5.82 13 13 13s13-5.82 13-13S21.18 1 14 1 1 6.82 1 14zM14 0C6.268 0 0 6.268 0 14s6.268 14 14 14 14-6.268 14-14S21.732 0 14 0z" fill="#04A54B"/><path d="M10.599 18.72l-4.425-5.079-1.507 1.718 5.932 6.808L23.333 7.551l-1.496-1.717L10.599 18.72z" fill="#04A54B"/></svg><svg fill="none" viewBox="0 0 16 16" id="icon-dropdown" xmlns="http://www.w3.org/2000/svg"><path fill="#07012E" d="M7.499 11.527l8-7.527.501.471-8 7.527z"/><path fill="#07012E" d="M.5 4.003l8 7.527L8 12 0 4.475z"/></svg><svg fill="none" viewBox="0 0 28 28" id="icon-error" xmlns="http://www.w3.org/2000/svg"><path fill-rule="evenodd" clip-rule="evenodd" d="M14 27c7.18 0 13-5.82 13-13S21.18 1 14 1 1 6.82 1 14s5.82 13 13 13zm0 1c7.732 0 14-6.268 14-14S21.732 0 14 0 0 6.268 0 14s6.268 14 14 14z" fill="#ED0610"/><path d="M13 6h2v12h-2V6z" fill="#ED0610"/><path fill-rule="evenodd" clip-rule="evenodd" d="M13 6v12h2V6h-2z" fill="#ED0610"/><path d="M13 20h2v2h-2v-2z" fill="#ED0610"/><path fill-rule="evenodd" clip-rule="evenodd" d="M13 20v2h2v-2h-2z" fill="#ED0610"/></svg><svg fill="none" viewBox="0 0 36 36" id="icon-exit" xmlns="http://www.w3.org/2000/svg"><path d="M30 4.667A.943.943 0 0131.334 6L6 31.333A.943.943 0 114.667 30L30 4.667z" fill="#77738C"/><path d="M31.333 30A.943.943 0 0130 31.333L4.667 6A.943.943 0 116 4.667L31.333 30z" fill="#77738C"/></svg><svg fill="none" viewBox="0 0 68 48" id="icon-motor" xmlns="http://www.w3.org/2000/svg"><path fill-rule="evenodd" clip-rule="evenodd" d="M4 18v24h20V18H4zm-1-2a1 1 0 00-1 1v26a1 1 0 001 1h22a1 1 0 001-1V17a1 1 0 00-1-1H3z" fill="#07012E"/><path fill-rule="evenodd" clip-rule="evenodd" d="M26 11v24h2V11h-2zm-1-2a1 1 0 00-1 1v26a1 1 0 001 1h4a1 1 0 001-1V10a1 1 0 00-1-1h-4z" fill="#07012E"/><path fill-rule="evenodd" clip-rule="evenodd" d="M29 13a1 1 0 00-1 1v18a1 1 0 001 1h2a1 1 0 001-1V14a1 1 0 00-1-1h-2z" fill="#07012E"/><path fill-rule="evenodd" clip-rule="evenodd" d="M33 7v27h31V7H33zm-1-2a1 1 0 00-1 1v29a1 1 0 001 1h33a1 1 0 001-1V6a1 1 0 00-1-1H32z" fill="#07012E"/><path fill-rule="evenodd" clip-rule="evenodd" d="M62 7v27h2V7h-2zm-1-2a1 1 0 00-1 1v29a1 1 0 001 1h4a1 1 0 001-1V6a1 1 0 00-1-1h-4z" fill="#07012E"/><path fill-rule="evenodd" clip-rule="evenodd" d="M14 27a5 5 0 100 10 5 5 0 000-10zm-7 5a7 7 0 1114 0 7 7 0 01-14 0z" fill="#BE054B"/><path d="M17 32a3 3 0 11-6 0 3 3 0 016 0z" fill="#FAFAFA"/><path fill-rule="evenodd" clip-rule="evenodd" d="M14 30a2 2 0 100 4 2 2 0 000-4zm-4 2a4 4 0 118 0 4 4 0 01-8 0z" fill="#BE054B"/><path fill-rule="evenodd" clip-rule="evenodd" d="M12.653 24.416c.016-.09.046-.18.09-.27l.292-.59a1 1 0 011.792 0l.292.59c.044.09.074.18.09.27a7.528 7.528 0 013.126 1.311.998.998 0 01.262-.134l.622-.209c.778-.262 1.518.486 1.258 1.271l-.207.628a1.018 1.018 0 01-.132.266c.65.924 1.103 2 1.297 3.164.096.016.193.047.288.095l.588.297a1 1 0 010 1.785l-.588.297a1.013 1.013 0 01-.288.095 7.69 7.69 0 01-1.297 3.164c.055.078.1.167.133.266l.207.628c.26.785-.48 1.533-1.258 1.271l-.622-.21a.998.998 0 01-.263-.133 7.53 7.53 0 01-3.126 1.31 1.01 1.01 0 01-.09.27l-.292.59a1 1 0 01-1.792 0l-.292-.59a1.012 1.012 0 01-.09-.269 7.53 7.53 0 01-3.128-1.31c-.078.055-.165.1-.262.133l-.621.21c-.778.261-1.518-.486-1.259-1.272l.207-.628a1.02 1.02 0 01.132-.264 7.69 7.69 0 01-1.299-3.166 1.014 1.014 0 01-.286-.095l-.588-.297a1 1 0 010-1.785l.588-.297a1.01 1.01 0 01.286-.095 7.69 7.69 0 011.299-3.166 1.019 1.019 0 01-.131-.264l-.207-.628c-.26-.785.48-1.533 1.258-1.27l.622.208a1 1 0 01.26.133 7.528 7.528 0 013.13-1.31zm1.277 13.777c3.387 0 6.134-2.774 6.134-6.196 0-3.422-2.747-6.196-6.134-6.196-3.387 0-6.134 2.774-6.134 6.196 0 3.422 2.747 6.197 6.134 6.197z" fill="#BE054B"/></svg><svg fill="none" viewBox="0 0 24 32" id="icon-phone" xmlns="http://www.w3.org/2000/svg"><path d="M2.377 9.282c-.442-3.037 1.61-5.765 4.745-6.764a2.2 2.2 0 011.679.14c.522.27.926.735 1.13 1.303l1.007 2.8c.162.45.19.942.084 1.41a2.438 2.438 0 01-.686 1.217l-2.994 2.86c-.147.142-.257.32-.319.52a1.26 1.26 0 00-.032.615l.027.125.072.314a17.98 17.98 0 001.687 4.357 17.433 17.433 0 002.998 3.928l.093.087c.15.138.33.234.526.277.195.044.398.034.589-.029l3.87-1.272c.44-.144.912-.148 1.354-.01a2.31 2.31 0 011.127.78l1.832 2.32c.764.966.671 2.385-.206 3.237-2.399 2.334-5.698 2.812-7.993.888a30.42 30.42 0 01-6.997-8.518A30.867 30.867 0 012.375 9.282h.002zm7.04 4.26l2.48-2.375a4.876 4.876 0 001.373-2.434 5.025 5.025 0 00-.167-2.819l-1.004-2.8A4.732 4.732 0 009.824.494 4.426 4.426 0 006.447.21C2.553 1.453-.573 5.096.089 9.646A33.377 33.377 0 003.97 21.083a32.807 32.807 0 007.547 9.185c3.443 2.885 8.038 1.9 11.023-1.002a4.865 4.865 0 001.449-3.182 4.918 4.918 0 00-1.035-3.354l-1.833-2.323a4.619 4.619 0 00-2.255-1.558 4.443 4.443 0 00-2.705.023l-3.214 1.055a15.881 15.881 0 01-2.165-2.952 15.499 15.499 0 01-1.365-3.43v-.003z" fill="#07012E"/></svg><svg fill="none" viewBox="0 0 32 32" id="icon-search" xmlns="http://www.w3.org/2000/svg"><path d="M22.38 11.69c0 5.904-4.786 10.69-10.69 10.69S1 17.594 1 11.69 5.786 1 11.69 1s10.69 4.786 10.69 10.69z" stroke="#07012E" stroke-width="2"/><path fill="#07012E" d="M19.601 17.535l12.4 12.4L29.933 32l-12.4-12.399z"/></svg><svg fill="none" viewBox="0 0 24 46" id="icon-slider-left" xmlns="http://www.w3.org/2000/svg"><path d="M1.419 21.56l21.88 22.288a1.03 1.03 0 01-.005 1.433.984.984 0 01-1.406.005L.008 22.997l1.411-1.437z" fill="#77738C"/><path d="M23.287.719c.387.394.392 1.038.005 1.432L1.412 24.44 0 23.002 21.88.713a.984.984 0 011.407.006z" fill="#77738C"/></svg><svg fill="none" viewBox="0 0 24 46" id="icon-slider-right" xmlns="http://www.w3.org/2000/svg"><path fill-rule="evenodd" clip-rule="evenodd" d="M22.582 21.567l.007-.007 1.41 1.438L2.12 45.287a.984.984 0 01-1.406-.005 1.029 1.029 0 01-.005-1.433l20.463-20.845L.701 2.152A1.029 1.029 0 01.705.719.984.984 0 012.112.714l20.47 20.852z" fill="#77738C"/></svg><svg fill="none" viewBox="0 0 32 32" id="icon-telegram" xmlns="http://www.w3.org/2000/svg"><path fill-rule="evenodd" clip-rule="evenodd" d="M32 16c0 8.836-7.164 16-16 16S0 24.836 0 16 7.164 0 16 0s16 7.164 16 16zm-15.427-4.188c-1.556.647-4.666 1.987-9.33 4.019-.758.301-1.155.596-1.191.884-.061.488.55.68 1.379.94.113.036.23.072.35.112.818.265 1.916.576 2.487.588.519.01 1.097-.203 1.736-.64 4.357-2.943 6.607-4.43 6.748-4.462.1-.022.239-.052.332.032.093.083.084.24.075.283-.062.257-2.454 2.483-3.694 3.635-.386.358-.66.613-.716.672-.125.129-.253.253-.376.372-.76.73-1.328 1.28.032 2.176.654.43 1.176.786 1.698 1.141.569.388 1.137.775 1.873 1.257.187.123.365.25.54.374.663.473 1.259.897 1.995.83.426-.04.869-.441 1.093-1.64.53-2.834 1.572-8.973 1.813-11.504.015-.21.006-.42-.026-.629a.675.675 0 00-.23-.433c-.19-.156-.486-.19-.62-.187-.601.01-1.524.332-5.968 2.18z" fill="#07012E"/></svg><svg fill="none" viewBox="0 0 32 32" id="icon-vk" xmlns="http://www.w3.org/2000/svg"><path d="M16 0C7.163 0 0 7.163 0 16s7.163 16 16 16 16-7.163 16-16S24.837 0 16 0zm6.153 18.052s1.415 1.396 1.764 2.045c.01.013.015.026.018.033.142.238.175.423.105.562-.117.23-.517.343-.653.353h-2.5c-.174 0-.537-.045-.977-.348-.338-.237-.672-.625-.997-1.004-.485-.563-.905-1.05-1.328-1.05a.51.51 0 00-.158.025c-.32.104-.73.56-.73 1.777 0 .38-.3.598-.512.598H15.04c-.39 0-2.422-.136-4.222-2.035-2.203-2.325-4.186-6.988-4.203-7.031-.125-.302.133-.464.415-.464h2.525c.337 0 .447.205.523.387.09.212.42 1.053.962 2 .878 1.543 1.417 2.17 1.848 2.17a.5.5 0 00.232-.06c.563-.313.458-2.322.433-2.738 0-.079-.001-.899-.29-1.292-.206-.285-.558-.393-.771-.433.086-.12.2-.216.331-.282.387-.193 1.084-.222 1.775-.222h.385c.75.01.944.059 1.215.127.55.132.562.487.514 1.702-.015.345-.03.735-.03 1.195 0 .1-.005.206-.005.32-.017.618-.037 1.32.4 1.608a.36.36 0 00.19.055c.151 0 .608 0 1.845-2.122.381-.683.713-1.392.991-2.123.025-.043.099-.177.185-.228a.444.444 0 01.207-.049h2.968c.324 0 .545.049.587.174.073.198-.013.803-1.368 2.638l-.605.798c-1.229 1.61-1.229 1.692.076 2.914z" fill="#07012E"/></svg><svg fill="none" viewBox="0 0 30 30" id="logo" xmlns="http://www.w3.org/2000/svg"><path fill="#FAFAFA" d="M11.88 10.56h6.24v7.14h-6.24z"/><path d="M4.412 7.524a.36.36 0 01-.08-.115l.025-.016.055.131zM6.177 16.98l-.03.014v-.005l.03-.009zM16.676 7.93l.009.008a.286.286 0 01-.131.06l.122-.068zM16.943 7.794a.395.395 0 01-.11.013l.106-.022.004.009z" fill="#BE054B"/><path d="M13.408 16.816l-.047.228-.072.474-.037.585v.622l-.043.56-.085.52v.004l-.12.48-.114.322-.064.06-.004.097-.127.254-.207.352-.246.305-.283.274-.173.127h-.033l-.097.097-.2.11h-.08l-.068.072-.19.08-.347.098-.272.047a44.004 44.004 0 00-7.485 1.44 15 15 0 01-.02-18.01l.148.072.279.18.004.004.009.008.008.004.233.198.254.275.203.283.18.331.004.004.14.352a.564.564 0 01-.016-.105l.12.504a.434.434 0 01-.009-.085l.022.127c-.005-.004-.005-.013-.009-.017l.072.461.03.45-.013.49c-.004.026-.004.047-.008.06l-.056.534-.105.559-.01.072v-.021l-.062.54-.022.516.009.512.034.6.068.665.093.669.146.765.157.694.203.8.466 1.49.296.805.618 1.482.347.266.792.114h.004l.06.005.982.123 1.863.173.402-.18.919-1.308.444-.69.437-.716.385-.698.293-.565zM24.26 23.069l.084-.055-.182.165.097-.11z" fill="#BE054B"/><path d="M26.363 24.789a14.997 14.997 0 01-22.735-.009 42.967 42.967 0 016.932-1.3l.3-.038.068-.012.325-.09.403-.152h.11l.084-.088.22-.12.076-.004.106-.114.28-.212a.735.735 0 00.097-.09l.199-.198.313-.372a.607.607 0 00.094-.12l.21-.33.2-.411.076-.08v-.098l.132-.364.144-.555.097-.584a.69.69 0 00.012-.12l.043-.55v-.644l.034-.5.055-.385.24-1.063.144-.491.055-.06v-.114l.173-.517.064-.064v-.105l.186-.483.62-1.371.326-.64.084-.084v-.085l.288-.512.089-.093.004-.072.36-.6.445-.7.258-.384 1.6.09 1.554.143.533 1.148.314.783.258.686.004.11.055.054.187.56v.12l.05.055.17.571.008.136.047.042.287 1.2.005.148.03.034.084.457.004.165.026.026.12 1.024.025.496v.441l-.034.41-.097.657-.048.673.004.55c-.002.02 0 .04.004.06l.047.505.097.507c.005.018.005.03.009.043l.131.423.225.53.012.025c.005.01.01.02.017.03l.013.025c.008.008.012.017.021.025l.157.275.258.347.317.34.356.3.445.274.38.17c.04.017.082.03.124.042l.19.063.072.03h.045c.23.062.455.121.683.185z" fill="#BE054B"/><path d="M30 15a14.939 14.939 0 01-3.023 9.03c-.36-.106-.724-.207-1.092-.3l-.55-.203-.3-.174-.54-.48-.212-.274-.18-.305-.153-.326-.004-.114-.06-.056-.076-.25v-.122l-.038-.042-.06-.293-.051-.474c0-.01 0-.02-.005-.03l-.004-.529.034-.495v-.021l.004-.017V19.5l.085-.551.055-.61v-.507l-.025-.513-.06-.618-.208-1.3-.16-.732-.187-.72-.21-.693v-.12l-.055-.055-.212-.644-.605-1.545-.364-.824-.42-.868-2.108-.195-2.096-.12-1.02 1.549-.402.666-.088.098v.063l-.703 1.33-.012.02.029-.144.004-.05h.004l.047-.457.021-.62c.004-.025.004-.046.008-.06l.056-.534.097-.49.127-.437c-.004.008-.008.013-.008.017l.012-.06h.005l.016-.102a.294.294 0 01-.012.093l.156-.39.208-.389.212-.309.25-.292.27-.25a.383.383 0 01-.063.043l.097-.072a.19.19 0 01-.03.03l.259-.174.025-.026.008-.004.005-.004.013-.009.262-.135.008-.005.318-.12.36-.084.25-.026a43.47 43.47 0 009.073-1.577A14.953 14.953 0 0130 15z" fill="#BE054B"/><path d="M25.885 23.73l-.55-.204-.3-.173-.54-.48-.212-.275-.18-.305-.152-.326-.005-.114-.06-.055-.076-.25v-.123l-.038-.042-.06-.292-.051-.474c0-.01 0-.02-.004-.03l-.005-.53.034-.494v-.022l.004-.017V19.5l.085-.551.055-.61v-.507l-.025-.513-.06-.618-.208-1.3-.16-.732-.187-.72-.21-.693v-.12l-.055-.055-.212-.644-.605-1.545-.364-.824-.42-.868-2.108-.195-2.096-.12-1.02 1.549-.401.666-.09.098v.063l-.702 1.33-.012.02v.009l-.068.36-.127.54-.161.55-.229.672-.232.614-.293.677-.309.652-.068.131-.046.229-.072.474-.038.584v.622l-.043.56-.084.52v.004l-.12.48-.115.322-.064.06-.004.097-.127.255-.207.351-.246.305-.283.275-.172.126h-.034l-.097.097-.2.11h-.08l-.067.072-.19.08-.348.098-.271.047a44.013 44.013 0 00-7.485 1.44c.199.258.402.512.613.757a42.97 42.97 0 016.932-1.301l.3-.038.068-.013.326-.089.402-.152h.11l.084-.088.22-.12.077-.005.106-.114.279-.212a.729.729 0 00.098-.089l.198-.198.314-.373a.607.607 0 00.093-.12l.211-.33.2-.41.076-.081v-.097l.131-.365.144-.554.097-.584a.69.69 0 00.013-.12l.043-.55v-.645l.033-.5.055-.385.24-1.063.144-.491.056-.06v-.114l.173-.517.063-.063v-.106l.187-.483.62-1.37.325-.64.085-.084v-.085l.288-.512.088-.094.005-.072.36-.6.444-.699.258-.385 1.6.09 1.555.144.533 1.148.313.783.259.685.004.11.055.055.186.56v.12l.051.054.17.571.008.136.047.043.287 1.2.004.148.03.033.085.458.004.165.025.025.12 1.025.025.495v.442l-.033.41-.097.656-.048.674.004.55c-.002.02 0 .04.004.06l.047.504.097.508c.004.017.004.03.008.042l.132.424.224.529.013.025c.004.01.01.02.017.03l.012.025c.009.009.013.017.022.026l.156.275.258.347.318.339.356.3.444.274.381.17c.04.017.081.031.123.042l.19.064.072.03h.045l.682.18c.212-.246.415-.5.614-.759a39.51 39.51 0 00-1.091-.295zm-1.723-.55l.098-.111.084-.055-.182.165z" fill="#FAFAFA"/><path d="M26.363 5.212a42.277 42.277 0 01-8.514 1.443l-.309.03v.013l-.072.013-.004-.013-.34.082a.29.29 0 00-.08.021l-.368.14-.406.2-.03.02a.48.48 0 00-.12.08l-.174.12a.42.42 0 00-.114.081l-.284.25a.498.498 0 00-.114.114l-.228.267a.497.497 0 00-.09.12l-.207.3-.034.076-.008-.004-.195.363-.013.055-.013-.004a.204.204 0 00-.025.076l-.148.356a.627.627 0 00-.043.127l-.126.432.008.004-.017.08h-.012l-.102.521-.009.064-.004-.004-.06.571-.027.674-.042.427h-.005l-.084.466-.106.466-.004.025h-.004l-.162.546-.198.593h.004l-.504 1.232-.31.656-.347.67-.372.672-.406.674-.445.69-.48.69.017.012-.004.009-.017-.013-.263.36-.593-.051-1.964-.22h-.046l-.54-.08-.492-1.186-.288-.792H6.42l-.24-.746-.03.013v-.005l.03-.008-.215-.72-.19-.728-.157-.712-.127-.686-.026.005v-.01h.022L5.4 13.56l-.068-.665-.034-.58-.009-.503.021-.462.055-.457h-.001l.004-.017.106-.563.008-.064.005.005.063-.58.017-.6c0-.04 0-.08-.004-.12l-.026-.369a.712.712 0 00-.008-.14l-.07-.435a.454.454 0 00-.025-.114l-.101-.36h-.004l-.009-.055-.004.004-.157-.42-.017.004-.032-.109-.19-.35-.009-.018-.025-.038-.25-.356a.672.672 0 00-.067-.072l-.2-.22a.5.5 0 00-.114-.114l-.23-.195a.755.755 0 00-.12-.089l-.321-.207-.022-.004c-.198.232-.389.47-.57.715l.147.072.28.18.004.004.009.009.008.004.235.2.253.275.204.283.18.33.004.005.14.351a.563.563 0 01-.016-.105l.12.504a.433.433 0 01-.01-.084l.022.126c-.004-.004-.004-.012-.008-.017l.072.462.03.449-.013.491c-.005.025-.005.046-.009.06l-.055.533-.106.559-.009.072v-.021l-.063.54-.021.517.008.511.034.6.068.665.093.67.147.764.156.694.204.8.465 1.491.297.805.618 1.481.347.267.791.114h.005l.06.004.982.123 1.863.174.402-.18.918-1.308.445-.691.436-.715.386-.699.292-.563.055-.27.158-.633.393-1.236v-.11l.068-.069.204-.533.309-.711.3-.636v-.008l.029-.144.004-.05h.004l.047-.457.022-.62c.004-.026.004-.047.008-.06l.055-.534.098-.492.127-.436c-.005.009-.009.013-.009.017l.013-.06h.004l.017-.102a.297.297 0 01-.013.094l.157-.39.207-.39.212-.309.25-.292.271-.25a.393.393 0 01-.063.043l.097-.072a.195.195 0 01-.03.03l.258-.174.026-.026a.286.286 0 01-.131.06l.12-.068.008.009.009-.004.004-.005.013-.008.262-.136.009-.004.317-.12.36-.084.25-.026a43.469 43.469 0 009.075-1.578c-.2-.262-.406-.514-.618-.762zM4.33 7.409l.026-.017.055.132a.36.36 0 01-.08-.115zm12.503.398l.106-.021.004.008a.395.395 0 01-.11.013z" fill="#FAFAFA"/><path d="M26.363 5.212a42.277 42.277 0 01-8.514 1.444l-.309.03v.012l-.072.013-.004-.013-.339.082a.29.29 0 00-.08.021l-.369.14-.406.2-.03.02a.479.479 0 00-.12.08l-.173.12a.418.418 0 00-.115.081l-.284.25a.498.498 0 00-.114.114l-.228.267a.497.497 0 00-.09.12l-.207.3-.034.076-.008-.004-.195.363-.012.056-.014-.005a.202.202 0 00-.025.077l-.148.355a.628.628 0 00-.043.128l-.126.431.008.004-.017.08h-.012l-.102.521-.009.064-.004-.004-.06.572-.027.673-.042.428h-.005l-.084.465-.106.466-.004.025h-.004l-.162.546-.198.593h.004l-.504 1.232-.309.656-.348.67-.372.673-.406.673-.445.69-.48.69.017.012-.004.009-.017-.013-.263.36-.593-.05-1.964-.221h-.046l-.54-.08-.492-1.185-.288-.792H6.42l-.24-.747-.215-.72-.19-.728-.157-.712-.127-.686-.026.005v-.01h.022L5.4 13.56l-.068-.664-.034-.58-.009-.504.021-.461.056-.458h-.002l.004-.017.106-.563.009-.063.004.004.063-.58.017-.6c0-.04 0-.08-.004-.12l-.026-.369a.71.71 0 00-.008-.14l-.07-.435a.455.455 0 00-.024-.114l-.102-.36H5.33l-.008-.055-.005.004-.157-.42-.017.005-.032-.11-.19-.35-.009-.018-.025-.038-.25-.355a.672.672 0 00-.067-.072l-.2-.22a.5.5 0 00-.114-.115l-.23-.195a.755.755 0 00-.12-.088l-.32-.208-.022-.004a14.994 14.994 0 0122.8-.085z" fill="#BE054B"/></svg><svg fill="none" viewBox="0 0 18 32" id="menu-icon-back" xmlns="http://www.w3.org/2000/svg"><path fill-rule="evenodd" clip-rule="evenodd" d="M16.168.289L1.535 14.509 0 15.998l16.168 15.712a1.035 1.035 0 001.434 0l.1-.098a.966.966 0 000-1.394L3.07 16 17.703 1.78a.966.966 0 000-1.393l-.1-.098a1.035 1.035 0 00-1.435 0z" fill="#CDCCD5"/></svg><svg fill="none" viewBox="0 0 18 32" id="product-title-arrow" xmlns="http://www.w3.org/2000/svg"><path fill-rule="evenodd" clip-rule="evenodd" d="M16.168.289L1.535 14.509 0 15.998l16.168 15.712a1.035 1.035 0 001.434 0l.1-.098a.966.966 0 000-1.394L3.07 16 17.703 1.78a.966.966 0 000-1.393l-.1-.098a1.035 1.035 0 00-1.435 0z" fill="#CDCCD5"/></svg><svg fill="none" viewBox="0 0 88 80" id="pros-icon-1" xmlns="http://www.w3.org/2000/svg"><path d="M38 61h12v11H38V61z" fill="#07012E"/><path fill-rule="evenodd" clip-rule="evenodd" d="M48 63h-8v7h8v-7zm-10-2v11h12V61H38z" fill="#07012E"/><path fill-rule="evenodd" clip-rule="evenodd" d="M76 6H12a6 6 0 00-6 6v43a6 6 0 006 6h64a6 6 0 006-6V12a6 6 0 00-6-6zM12 4a8 8 0 00-8 8v43a8 8 0 008 8h64a8 8 0 008-8V12a8 8 0 00-8-8H12z" fill="#07012E"/><mask id="baa" fill="#fff"><path fill-rule="evenodd" clip-rule="evenodd" d="M64.853 57H23.147a.604.604 0 01.015-.026l4.329-7.034a.115.115 0 00-.071-.172l-8.036-1.913a.5.5 0 01-.384-.487v-8.734a.5.5 0 01.384-.486l8.031-1.912a.12.12 0 00.074-.179l-4.327-7.031a.5.5 0 01.073-.616l6.175-6.175a.5.5 0 01.616-.073l7.03 4.327a.119.119 0 00.178-.074l1.912-8.03a.5.5 0 01.486-.385h8.734a.5.5 0 01.487.384l1.911 8.029a.12.12 0 00.18.075l7.03-4.326a.5.5 0 01.616.072l6.175 6.176a.5.5 0 01.073.616l-4.326 7.029a.121.121 0 00.075.181l8.029 1.912a.5.5 0 01.384.486v8.734a.5.5 0 01-.384.487l-8.025 1.91a.134.134 0 00-.092.08.099.099 0 00.007.089l4.332 7.04.015.026zm-13.71-14.002a7.143 7.143 0 11-14.286 0 7.143 7.143 0 0114.286 0z"/></mask><path fill-rule="evenodd" clip-rule="evenodd" d="M64.853 57H23.147a.604.604 0 01.015-.026l4.329-7.034a.115.115 0 00-.071-.172l-8.036-1.913a.5.5 0 01-.384-.487v-8.734a.5.5 0 01.384-.486l8.031-1.912a.12.12 0 00.074-.179l-4.327-7.031a.5.5 0 01.073-.616l6.175-6.175a.5.5 0 01.616-.073l7.03 4.327a.119.119 0 00.178-.074l1.912-8.03a.5.5 0 01.486-.385h8.734a.5.5 0 01.487.384l1.911 8.029a.12.12 0 00.18.075l7.03-4.326a.5.5 0 01.616.072l6.175 6.176a.5.5 0 01.073.616l-4.326 7.029a.121.121 0 00.075.181l8.029 1.912a.5.5 0 01.384.486v8.734a.5.5 0 01-.384.487l-8.025 1.91a.134.134 0 00-.092.08.099.099 0 00.007.089l4.332 7.04.015.026zm-13.71-14.002a7.143 7.143 0 11-14.286 0 7.143 7.143 0 0114.286 0z" fill="#FAFAFA"/><path d="M64.853 57v2h3.345l-1.583-2.947-1.762.947zm-41.706 0l-1.762-.947L19.802 59h3.345v-2zm.015-.026l1.703 1.049-1.703-1.049zm4.329-7.034l-1.703-1.049 1.703 1.049zm.008-.104l-1.847.766 1.847-.766zm-.08-.068l.464-1.946-.463 1.946zm-8.035-1.913l.463-1.946-.463 1.946zm0-9.707l.463 1.946-.463-1.946zm8.031-1.912l.463 1.946-.463-1.946zm.083-.07l1.847.765-1.847-.766zm-.009-.109l1.703-1.048-1.703 1.048zm-4.327-7.031l1.704-1.048-1.704 1.048zm.073-.616l1.414 1.415-1.414-1.415zm6.175-6.175l1.415 1.414-1.415-1.415zm.616-.073l-1.048 1.704 1.048-1.704zm7.03 4.327l-1.048 1.703 1.048-1.703zm.108.008l-.766-1.847.766 1.847zm.07-.082l-1.946-.463 1.946.463zm1.912-8.03l1.946.462-1.946-.463zm9.707 0l-1.946.462 1.946-.463zm1.911 8.028l1.946-.463-1.946.463zm.071.083l-.766 1.848.766-1.848zm.11-.008l1.048 1.703-1.048-1.703zm7.029-4.326l-1.048-1.703 1.048 1.703zm.616.072l1.414-1.414-1.414 1.414zm6.175 6.176l-1.414 1.414 1.415-1.414zm.073.616l-1.704-1.049 1.704 1.049zm-4.326 7.029l-1.703-1.048 1.703 1.048zm-.008.11l1.847-.766-1.847.766zm.083.071l.464-1.945-.464 1.945zm8.029 1.912l-.463 1.945.463-1.945zm0 9.707l-.463-1.946.463 1.946zm-8.025 1.91l-.463-1.945.463 1.945zm-.092.08l-1.847-.768 1.847.767zm.007.089l-1.704 1.048 1.704-1.048zm4.332 7.04l1.704-1.048-1.704 1.048zM64.853 55H23.147v4h41.706v-4zm-39.944 2.947l-.044.076-3.406-2.097c-.026.042-.05.084-.074.127l3.524 1.894zm-.044.076l4.33-7.035-3.407-2.097-4.33 7.035 3.407 2.097zm4.33-7.035c.357-.581.41-1.295.151-1.919l-3.694 1.533a1.885 1.885 0 01.136-1.71l3.406 2.096zm.151-1.919a2.114 2.114 0 00-1.463-1.247l-.926 3.892a1.885 1.885 0 01-1.305-1.112l3.694-1.533zm-1.463-1.247l-8.036-1.913-.926 3.891 8.036 1.914.926-3.892zm-8.036-1.913A1.5 1.5 0 0121 47.37h-4a2.5 2.5 0 001.92 2.431l.927-3.89zM21 47.37v-8.735h-4v8.734h4zm0-8.735a1.5 1.5 0 01-1.153 1.46l-.926-3.892A2.5 2.5 0 0017 38.634h4zm-1.153 1.46l8.031-1.913-.926-3.89-8.031 1.911.926 3.892zm8.031-1.913a2.12 2.12 0 001.467-1.25L25.65 35.4a1.88 1.88 0 011.302-1.11l.926 3.892zm1.467-1.25a2.12 2.12 0 00-.153-1.922l-3.406 2.096a1.88 1.88 0 01-.136-1.705l3.695 1.531zm-.153-1.922l-4.326-7.031-3.407 2.096 4.327 7.031 3.406-2.096zm-4.326-7.031a1.5 1.5 0 01-.217 1.847l-2.829-2.829a2.5 2.5 0 00-.361 3.078l3.407-2.096zm-.217 1.847l6.176-6.176-2.829-2.829-6.176 6.176 2.829 2.829zm6.176-6.176a1.5 1.5 0 01-1.847.217l2.096-3.407a2.5 2.5 0 00-3.078.361l2.829 2.829zm-1.847.217l7.03 4.326 2.096-3.407-7.03-4.326-2.096 3.407zm7.03 4.326a2.118 2.118 0 001.922.152l-1.532-3.694a1.881 1.881 0 011.706.135l-2.096 3.407zm1.922.152a2.119 2.119 0 001.25-1.466l-3.892-.926c.14-.59.556-1.073 1.11-1.302l1.532 3.694zm1.25-1.466l1.912-8.03-3.892-.927-1.912 8.03 3.892.927zm1.912-8.03A1.5 1.5 0 0139.632 20v-4a2.5 2.5 0 00-2.432 1.92l3.892.927zM39.632 20h8.734v-4h-8.734v4zm8.734 0a1.5 1.5 0 01-1.459-1.153l3.891-.926A2.5 2.5 0 0048.366 16v4zm-1.459-1.153l1.912 8.03 3.89-.927-1.91-8.03-3.892.927zm1.912 8.03a2.12 2.12 0 001.25 1.467l1.532-3.695c.553.229.968.71 1.109 1.3l-3.891.927zm1.25 1.467a2.12 2.12 0 001.924-.153l-2.096-3.407a1.88 1.88 0 011.704-.135l-1.532 3.695zm1.924-.153l7.03-4.326-2.097-3.406-7.03 4.325 2.097 3.407zm7.03-4.326a1.5 1.5 0 01-1.848-.217l2.829-2.828a2.5 2.5 0 00-3.078-.361l2.096 3.406zm-1.848-.217l6.176 6.176 2.829-2.828-6.176-6.176-2.829 2.828zm6.176 6.176a1.5 1.5 0 01-.217-1.847l3.407 2.097a2.5 2.5 0 00-.361-3.078l-2.829 2.828zm-.217-1.847l-4.325 7.03 3.406 2.096 4.326-7.03-3.407-2.096zm-4.325 7.03a2.122 2.122 0 00-.153 1.924l3.695-1.532c.23.553.182 1.187-.136 1.704l-3.406-2.096zm-.153 1.924a2.121 2.121 0 001.468 1.251l.927-3.891c.59.14 1.07.555 1.3 1.108l-3.695 1.532zm1.468 1.251l8.029 1.911.926-3.89-8.028-1.912-.927 3.891zm8.029 1.911A1.5 1.5 0 0167 38.634h4a2.5 2.5 0 00-1.921-2.432l-.926 3.892zM67 38.634v8.734h4v-8.734h-4zm0 8.734a1.5 1.5 0 011.153-1.459l.926 3.891A2.5 2.5 0 0071 47.368h-4zm1.153-1.459l-8.025 1.91.926 3.892 8.025-1.91-.926-3.892zm-8.025 1.91c-.67.16-1.216.63-1.476 1.258l3.694 1.535c-.228.548-.706.96-1.291 1.099l-.927-3.891zm-1.476 1.258a2.098 2.098 0 00.15 1.905l3.407-2.096c.322.522.37 1.165.137 1.726l-3.694-1.535zm.15 1.905l4.333 7.04 3.407-2.096-4.333-7.04-3.407 2.096zm4.333 7.04a1.623 1.623 0 01-.044-.075l3.524-1.894a2.629 2.629 0 00-.073-.127l-3.407 2.097zM44 52.142a9.143 9.143 0 009.143-9.143h-4A5.143 5.143 0 0144 48.14v4zm-9.143-9.143A9.143 9.143 0 0044 52.14v-4a5.143 5.143 0 01-5.143-5.143h-4zM44 33.855a9.143 9.143 0 00-9.143 9.143h4A5.143 5.143 0 0144 37.855v-4zm9.143 9.143A9.143 9.143 0 0044 33.855v4a5.143 5.143 0 015.143 5.143h4z" fill="#BE054B" mask="url(#baa)"/><path d="M31 74a4 4 0 014-4h18a4 4 0 014 4v2H31v-2z" fill="#07012E"/><path fill-rule="evenodd" clip-rule="evenodd" d="M53 72H35a2 2 0 00-2 2h22a2 2 0 00-2-2zm-18-2a4 4 0 00-4 4v2h26v-2a4 4 0 00-4-4H35z" fill="#07012E"/><path fill-rule="evenodd" clip-rule="evenodd" d="M4 56a1 1 0 011-1h78a1 1 0 110 2H5a1 1 0 01-1-1z" fill="#000"/></svg><svg fill="none" viewBox="0 0 88 80" id="pros-icon-2" xmlns="http://www.w3.org/2000/svg"><mask id="bba" fill="#fff"><path fill-rule="evenodd" d="M78 12a6 6 0 016 6v18a6 6 0 01-6 6H56v4a1 1 0 01-1.6.8L48 42h-4a6 6 0 01-6-6V18a6 6 0 016-6h34z" clip-rule="evenodd"/></mask><path fill="#07012E" d="M56 42h-2v-2h2v2zm-1.6 4.8l-1.2 1.6 1.2-1.6zM48 42v-2h.67l.53.4L48 42zm34-24a4 4 0 00-4-4v-4a8 8 0 018 8h-4zm0 18V18h4v18h-4zm-4 4a4 4 0 004-4h4a8 8 0 01-8 8v-4zm-22 0h22v4H56v-4zm-2 6v-4h4v4h-4zm1.6-.8a1 1 0 00-1.6.8h4a3 3 0 01-4.8 2.4l2.4-3.2zm-6.4-4.8l6.4 4.8-2.4 3.2-6.4-4.8 2.4-3.2zM44 40h4v4h-4v-4zm-4-4a4 4 0 004 4v4a8 8 0 01-8-8h4zm0-18v18h-4V18h4zm4-4a4 4 0 00-4 4h-4a8 8 0 018-8v4zm13.68 0H44v-4h13.68v4zm19.69 0H57.68v-4h19.69v4zm.63 0h-.63v-4H78v4z" mask="url(#bba)"/><mask id="bbb" fill="#fff"><path fill-rule="evenodd" d="M16 4a8 8 0 00-8 8v16a8 8 0 008 8h12v5.59a1 1 0 001.7.7L36 36h24a8 8 0 008-8V12a8 8 0 00-8-8H16z" clip-rule="evenodd"/></mask><path fill="#FAFAFA" fill-rule="evenodd" d="M16 4a8 8 0 00-8 8v16a8 8 0 008 8h12v5.59a1 1 0 001.7.7L36 36h24a8 8 0 008-8V12a8 8 0 00-8-8H16z" clip-rule="evenodd"/><path fill="#BE054B" d="M28 36h2v-2h-2v2zm1.7 6.3l1.42 1.4-1.41-1.4zM36 36v-2h-.83l-.58.59L36 36zM10 12a6 6 0 016-6V2A10 10 0 006 12h4zm0 16V12H6v16h4zm6 6a6 6 0 01-6-6H6a10 10 0 0010 10v-4zm12 0H16v4h12v-4zm2 7.59V36h-4v5.59h4zm-1.7-.71a1 1 0 011.7.7h-4a3 3 0 005.12 2.13l-2.83-2.83zm6.29-6.3l-6.3 6.3 2.83 2.83 6.3-6.3-2.83-2.82zM60 34H36v4h24v-4zm6-6a6 6 0 01-6 6v4a10 10 0 0010-10h-4zm0-16v16h4V12h-4zm-6-6a6 6 0 016 6h4A10 10 0 0060 2v4zM16 6h44V2H16v4z" mask="url(#bbb)"/><path stroke="#07012E" stroke-width="2" d="M29 52a7 7 0 11-14 0 7 7 0 0114 0zm44 0a7 7 0 11-14 0 7 7 0 0114 0z"/><path fill="#07012E" fill-rule="evenodd" d="M40 76a18.44 18.44 0 00-18-14A18.44 18.44 0 004 76h36zm-2.79-2A16.42 16.42 0 0022 64 16.42 16.42 0 006.79 74H37.2z" clip-rule="evenodd"/><path fill="#07012E" fill-rule="evenodd" d="M40 76a18.44 18.44 0 00-18-14A18.44 18.44 0 004 76h36zm44 0a18.44 18.44 0 00-18-14 18.44 18.44 0 00-18 14h36z" clip-rule="evenodd"/></svg><svg fill="none" viewBox="0 0 88 80" id="pros-icon-3" xmlns="http://www.w3.org/2000/svg"><rect width="10" height="14" x="39" y="61" fill="#07012E" stroke="#07012E" stroke-width="2" rx="3"/><path fill="#07012E" d="M31.852 52.374l.536-.845-.536.845zm24.296 0l.535.844-.535-.844zM68 29c0 9.05-5.005 17.847-12.388 22.53l1.071 1.688C64.633 48.176 70 38.747 70 29h-2zM44 5c13.255 0 24 10.745 24 24h2C70 14.64 58.36 3 44 3v2zM20 29C20 15.745 30.745 5 44 5V3C29.64 3 18 14.64 18 29h2zm12.388 22.53C25.005 46.846 20 38.05 20 29h-2c0 9.747 5.366 19.176 13.317 24.218l1.07-1.689zM35 67V56.06h-2V67h2zm15 3H38v2h12v-2zm3-13.94V67h2V56.06h-2zM33 67a5 5 0 005 5v-2a3 3 0 01-3-3h-2zm-1.683-13.782C32.353 53.876 33 54.941 33 56.06h2c0-1.91-1.093-3.567-2.612-4.53l-1.071 1.688zM50 72a5 5 0 005-5h-2a3 3 0 01-3 3v2zm5.612-20.47c-1.52.963-2.612 2.62-2.612 4.53h2c0-1.119.647-2.184 1.683-2.842l-1.07-1.689zM35 65h18v2H35zm0-4h18v2H35z"/><path fill="#BE054B" d="M47 60v1h-2v-1h2zm-1-8h-1a1 1 0 01.293-.707L46 52zm3.293-4.707a1 1 0 011.414 1.414l-1.414-1.414zM45 60v-8h2v8h-2zm.293-8.707l4-4 1.414 1.414-4 4-1.414-1.414zM41 60v1h2v-1h-2zm1-8h1a1 1 0 00-.293-.707L42 52zm-3.293-4.707a1 1 0 00-1.414 1.414l1.414-1.414zM43 60v-8h-2v8h2zm-.293-8.707l-4-4-1.414 1.414 4 4 1.414-1.414z"/><path stroke="#BE054B" stroke-linecap="round" stroke-width="2" d="M57.883 14.012c-7.51-7.51-19.93-7.266-27.74.544-7.811 7.81-8.055 20.23-.545 27.74"/><rect width="8" height="2" x="73" y="27" fill="#BE054B" rx="1"/><rect width="8" height="2" x="68.865" y="12.567" fill="#BE054B" rx="1" transform="rotate(-30 68.865 12.567)"/><rect width="8" height="2" x="69.365" y="41.567" fill="#BE054B" rx="1" transform="rotate(30 69.365 41.567)"/><rect width="8" height="2" x="7" y="26" fill="#BE054B" rx="1"/><rect width="8" height="2" x="11.207" y="44.701" fill="#BE054B" rx="1" transform="rotate(-30 11.207 44.701)"/><rect width="8" height="2" x="12.707" y="7.701" fill="#BE054B" rx="1" transform="rotate(30 12.707 7.7)"/></svg><svg fill="none" viewBox="0 0 88 80" id="pros-icon-4" xmlns="http://www.w3.org/2000/svg"><defs><path id="bda" fill="#07012E" d="M5.929 23.926A2 2 0 017.927 22h8.146a2 2 0 011.998 1.926l1.852 50A2 2 0 0117.925 76H6.075a2 2 0 01-1.998-2.074l1.852-50z"/></defs><circle cx="12" cy="68" r="4" fill="#FAFAFA"/><path fill="#FAFAFA" d="M79 43h6v3a1 1 0 01-1 1h-4a1 1 0 01-1-1v-3z"/><rect width="71" height="30" x="12" y="45" stroke="#07012E" stroke-width="2" rx="3"/><mask id="bdb" width="16" height="54" x="4" y="22" maskUnits="userSpaceOnUse" style="mask-type:alpha"><use xlink:href="#bda"/></mask><g mask="url(#bdb)"><use xlink:href="#bda"/><path fill="#FAFAFA" d="M0 17.846h27v10.385H0z"/></g><path stroke="#07012E" stroke-width="2" d="M7.927 23h8.146a1 1 0 01.999.963l1.852 50a1 1 0 01-1 1.037H6.076a1 1 0 01-.999-1.037l1.852-50a1 1 0 011-.963z"/><mask id="bdc" fill="#fff"><path fill-rule="evenodd" d="M58.48 4.384A.5.5 0 0158.966 4h6.067a.5.5 0 01.487.384l1.351 5.676a.085.085 0 00.128.053l4.968-3.058a.5.5 0 01.616.072l4.29 4.29a.5.5 0 01.072.616l-3.057 4.968a.085.085 0 00.053.127l5.675 1.352a.5.5 0 01.384.486v6.067a.5.5 0 01-.384.487l-5.674 1.35a.087.087 0 00-.054.13l3.056 4.967a.5.5 0 01-.072.616l-4.29 4.29a.5.5 0 01-.616.072L67 33.888a.085.085 0 00-.128.053l-1.351 5.675a.5.5 0 01-.487.384h-6.067a.5.5 0 01-.486-.384l-1.352-5.676a.084.084 0 00-.126-.052l-4.97 3.058a.5.5 0 01-.615-.072l-4.29-4.29a.5.5 0 01-.072-.616l3.057-4.97a.086.086 0 00-.053-.128l-5.675-1.35a.5.5 0 01-.384-.487v-6.067a.5.5 0 01.384-.486l5.677-1.352a.083.083 0 00.051-.124l-3.058-4.97a.5.5 0 01.072-.616l4.29-4.29a.5.5 0 01.616-.073l4.969 3.058a.085.085 0 00.127-.053l1.352-5.676zM62 27.143a5.143 5.143 0 100-10.286 5.143 5.143 0 000 10.286z" clip-rule="evenodd"/></mask><path fill="#FAFAFA" fill-rule="evenodd" d="M58.48 4.384A.5.5 0 0158.966 4h6.067a.5.5 0 01.487.384l1.351 5.676a.085.085 0 00.128.053l4.968-3.058a.5.5 0 01.616.072l4.29 4.29a.5.5 0 01.072.616l-3.057 4.968a.085.085 0 00.053.127l5.675 1.352a.5.5 0 01.384.486v6.067a.5.5 0 01-.384.487l-5.674 1.35a.087.087 0 00-.054.13l3.056 4.967a.5.5 0 01-.072.616l-4.29 4.29a.5.5 0 01-.616.072L67 33.888a.085.085 0 00-.128.053l-1.351 5.675a.5.5 0 01-.487.384h-6.067a.5.5 0 01-.486-.384l-1.352-5.676a.084.084 0 00-.126-.052l-4.97 3.058a.5.5 0 01-.615-.072l-4.29-4.29a.5.5 0 01-.072-.616l3.057-4.97a.086.086 0 00-.053-.128l-5.675-1.35a.5.5 0 01-.384-.487v-6.067a.5.5 0 01.384-.486l5.677-1.352a.083.083 0 00.051-.124l-3.058-4.97a.5.5 0 01.072-.616l4.29-4.29a.5.5 0 01.616-.073l4.969 3.058a.085.085 0 00.127-.053l1.352-5.676zM62 27.143a5.143 5.143 0 100-10.286 5.143 5.143 0 000 10.286z" clip-rule="evenodd"/><path fill="#BE054B" d="M57.128 10.06l1.946.464-1.946-.464zm-.127.053l-1.048 1.703L57 10.113zm-4.969-3.058l1.048-1.703-1.048 1.703zm-4.978 4.978l-1.703 1.048 1.703-1.048zm.072-.615l-1.414-1.415 1.414 1.415zm2.987 5.586l1.703-1.048-1.703 1.048zm-.052.124l.464 1.945-.464-1.945zm-5.677 8.392l-.463 1.945.463-1.945zm5.675 1.35l-.463 1.947.463-1.946zm.053.129L48.41 25.95l1.703 1.048zm-2.985 5.585l1.414-1.415-1.414 1.415zm-.072-.616l1.703 1.048-1.703-1.048zm4.978 4.978l-1.049-1.703 1.049 1.703zm-.616-.072l1.414-1.415-1.414 1.415zm5.585-2.986l-1.048-1.704 1.048 1.704zm.126.052l1.946-.463-1.946.463zm1.352 5.676l1.945-.463-1.945.463zm7.04 0l-1.946-.463 1.946.463zm1.35-5.675l-1.945-.463 1.946.463zm.129-.053l-1.048 1.704 1.048-1.704zm5.583 2.985l1.414 1.414-1.414-1.414zm-.616.072l-1.048 1.703 1.048-1.703zm4.978-4.978l-1.703 1.048 1.703-1.048zm-.072.616l1.414 1.414-1.414-1.414zM73.888 27l-1.703 1.049L73.888 27zm.054-.13l-.463-1.945.463 1.946zm5.674-1.35l.463 1.945-.463-1.945zm0-7.04l.463-1.946-.463 1.946zm-5.676-1.352l.463-1.945-.463 1.945zm-.052-.127l1.703 1.049L73.888 17zm2.985-5.584l-1.414 1.415 1.414-1.415zm.072.616l-1.703-1.048 1.703 1.048zm-4.978-4.978l-1.048-1.703 1.048 1.703zm.616.072l-1.415 1.415 1.415-1.415zm-5.584 2.986l1.048 1.703-1.048-1.704zm-.128-.053l1.946-.464-1.946.464zM58.48 4.384l-1.946-.463 1.946.463zm7.04 0l-1.946.463 1.946-.463zM65.033 2h-6.067v4h6.067V2zm3.784 7.596l-1.352-5.675-3.89.926 1.35 5.676 3.892-.927zm2.102-4.244L65.95 8.409l2.097 3.407 4.968-3.058-2.096-3.406zm7.368 4.651l-4.29-4.29-2.829 2.829 4.29 4.29 2.829-2.829zm-2.696 8.047l3.057-4.969-3.406-2.096-3.058 4.968 3.407 2.097zm4.488-1.516l-5.675-1.351-.927 3.891 5.676 1.351.926-3.891zm1.921 8.5v-6.068h-4v6.067h4zm-7.595 3.782l5.674-1.35-.926-3.892-5.675 1.351.927 3.891zm4.243 2.103l-3.057-4.967-3.406 2.096 3.056 4.967 3.407-2.096zm-4.652 7.368l4.29-4.29-2.828-2.829-4.29 4.29 2.828 2.829zm-8.045-2.695l4.967 3.056 2.096-3.406-4.967-3.057-2.096 3.407zm1.514 4.487l1.351-5.675-3.89-.926-1.352 5.675 3.891.926zM58.966 42h6.067v-4h-6.067v4zm-3.784-7.597l1.352 5.676 3.891-.926-1.351-5.676-3.892.926zm-2.101 4.246l4.97-3.058-2.097-3.407-4.97 3.059 2.097 3.406zm-7.368-4.651l4.29 4.29 2.828-2.828-4.29-4.29-2.828 2.828zm2.696-8.047l-3.058 4.969 3.407 2.096 3.058-4.969-3.407-2.096zm-4.488 1.514l5.675 1.352.927-3.892-5.676-1.35-.926 3.89zM42 18.966v6.067h4v-6.067h-4zm7.598-3.784l-5.677 1.352.926 3.891 5.678-1.352-.927-3.89zm-4.247-2.1l3.058 4.97 3.407-2.096-3.059-4.971-3.406 2.096zm4.651-7.369l-4.29 4.29 2.828 2.829 4.29-4.29-2.828-2.829zM58.05 8.41l-4.97-3.058-2.096 3.406 4.969 3.058 2.096-3.406zm-1.515-4.49l-1.351 5.677 3.89.927 1.352-5.677-3.891-.926zM65.144 22A3.143 3.143 0 0162 25.143v4A7.143 7.143 0 0069.143 22h-4zM62 18.857A3.143 3.143 0 0165.143 22h4A7.143 7.143 0 0062 14.857v4zM58.858 22A3.143 3.143 0 0162 18.857v-4A7.143 7.143 0 0054.858 22h4zM62 25.143A3.143 3.143 0 0158.858 22h-4A7.143 7.143 0 0062 29.143v-4zm-4.156-13.177a2.085 2.085 0 001.23-1.442l-3.891-.927a1.915 1.915 0 011.129-1.325l1.532 3.694zm-1.891-.15c.57.351 1.273.407 1.891.15l-1.532-3.694a1.915 1.915 0 011.737.138l-2.096 3.406zM52.83 8.542a1.5 1.5 0 01-1.847.216l2.096-3.406a2.5 2.5 0 00-3.078.361l2.829 2.829zm-4.074 2.443a1.5 1.5 0 01-.217 1.847l-2.828-2.829a2.5 2.5 0 00-.361 3.078l3.406-2.096zm3.21 6.86a2.083 2.083 0 00-.15-1.89l-3.408 2.097a1.917 1.917 0 01-.138-1.74l3.695 1.533zm-1.442 1.229a2.083 2.083 0 001.441-1.229l-3.695-1.532a1.917 1.917 0 011.327-1.13l.927 3.89zM46 18.965a1.5 1.5 0 01-1.153 1.46l-.926-3.892A2.5 2.5 0 0042 18.966h4zm-1.153 4.608A1.5 1.5 0 0146 25.034h-4a2.5 2.5 0 001.92 2.431l.927-3.89zm7.119 2.581a2.085 2.085 0 00-1.443-1.23l-.927 3.892a1.914 1.914 0 01-1.325-1.13l3.695-1.532zm-.15 1.892a2.085 2.085 0 00.15-1.892l-3.695 1.532a1.914 1.914 0 01.138-1.736l3.407 2.096zM48.54 31.17a1.5 1.5 0 01.217 1.847L45.35 30.92a2.5 2.5 0 00.362 3.078l2.828-2.829zm2.444 4.074a1.5 1.5 0 011.846.216l-2.828 2.829a2.5 2.5 0 003.078.361l-2.097-3.406zm6.86-3.209a2.084 2.084 0 00-1.89.15l2.096 3.407a1.916 1.916 0 01-1.739.138l1.533-3.695zm1.229 1.443a2.084 2.084 0 00-1.23-1.443l-1.532 3.695a1.916 1.916 0 01-1.13-1.326l3.892-.926zM58.966 38a1.5 1.5 0 011.46 1.153l-3.892.926A2.5 2.5 0 0058.966 42v-4zm4.608 1.153A1.5 1.5 0 0165.034 38v4a2.5 2.5 0 002.431-1.92l-3.89-.927zm2.581-7.118a2.086 2.086 0 00-1.23 1.443l3.891.926a1.914 1.914 0 01-1.129 1.325l-1.532-3.694zm1.892.15a2.085 2.085 0 00-1.892-.15l1.532 3.695a1.914 1.914 0 01-1.736-.138l2.096-3.407zm3.12 3.274a1.5 1.5 0 011.847-.217l-2.096 3.406a2.5 2.5 0 003.078-.361l-2.828-2.828zm4.074-2.444a1.5 1.5 0 01.217-1.847l2.828 2.829a2.5 2.5 0 00.362-3.078l-3.407 2.096zm-3.207-6.86a2.087 2.087 0 00.15 1.893l3.407-2.096c.324.526.372 1.172.138 1.736l-3.695-1.532zm1.444-1.23a2.087 2.087 0 00-1.444 1.23l3.695 1.533a1.913 1.913 0 01-1.324 1.128l-.927-3.89zm4.522.108a1.5 1.5 0 011.153-1.459l.926 3.891A2.5 2.5 0 0082 25.033h-4zm1.153-4.608A1.5 1.5 0 0178 18.966h4a2.5 2.5 0 00-1.92-2.432l-.927 3.891zm-7.119-2.58a2.085 2.085 0 001.443 1.229l.926-3.891c.598.142 1.09.562 1.326 1.13l-3.695 1.532zm.15-1.892a2.085 2.085 0 00-.15 1.892l3.695-1.533a1.915 1.915 0 01-.138 1.738l-3.407-2.097zm3.275-3.121a1.5 1.5 0 01-.217-1.847l3.406 2.096a2.5 2.5 0 00-.361-3.078l-2.828 2.829zm-2.444-4.074a1.5 1.5 0 01-1.847-.216l2.829-2.829a2.5 2.5 0 00-3.078-.361l2.096 3.406zm-6.86 3.208a2.09 2.09 0 001.892-.15L65.95 8.409a1.915 1.915 0 011.737-.138l-1.532 3.695zm-1.23-1.443c.155.65.613 1.187 1.23 1.443l1.532-3.695c.567.235.987.728 1.13 1.325l-3.892.927zM58.966 2a2.5 2.5 0 00-2.432 1.921l3.891.926A1.5 1.5 0 0158.966 6V2zm6.067 4a1.5 1.5 0 01-1.459-1.153l3.891-.926A2.5 2.5 0 0065.033 2v4z" mask="url(#bdc)"/><rect width="10" height="10" x="26" y="54" stroke="#07012E" stroke-width="2" rx="1"/><rect width="10" height="10" x="46" y="54" stroke="#07012E" stroke-width="2" rx="1"/><rect width="10" height="10" x="66" y="54" stroke="#07012E" stroke-width="2" rx="1"/></svg><svg fill="none" viewBox="0 0 8 8" id="required-icon" xmlns="http://www.w3.org/2000/svg"><path d="M7.867 5.225L5.6 4l2.266-1.225a.242.242 0 00.097-.342l-.533-.866a.277.277 0 00-.365-.092L4.801 2.701V.25C4.8.112 4.68 0 4.534 0H3.466C3.32 0 3.2.112 3.2.25V2.7L.934 1.476a.277.277 0 00-.365.092l-.533.866a.242.242 0 00.097.342L2.4 4 .133 5.225a.242.242 0 00-.097.342l.533.866c.074.12.237.16.365.092l2.265-1.226V7.75c0 .138.12.25.267.25h1.068c.147 0 .267-.112.267-.25V5.3l2.265 1.225c.128.069.29.028.365-.092l.533-.866a.241.241 0 00-.097-.342z" fill="#BE054B"/></svg><svg fill="none" viewBox="0 0 32 32" id="search-icon-close" xmlns="http://www.w3.org/2000/svg"><path fill="#77738C" d="M28.667 2l1.334 1.334L3.334 30l-1.333-1.334z"/><path fill="#77738C" d="M30.001 28.667l-1.334 1.334L2.001 3.334l1.334-1.333z"/></svg><svg fill="none" viewBox="0 0 68 48" id="submenu-icon-1" xmlns="http://www.w3.org/2000/svg"><path d="M10 20h18v8H10v-8z" fill="#07012E"/><path fill-rule="evenodd" clip-rule="evenodd" d="M52.464 30.62A14.91 14.91 0 0053.967 25H48.5a.5.5 0 01-.5-.5v-1a.5.5 0 01.5-.5H53.967a14.913 14.913 0 00-1.503-5.619l-4.737 2.735a.5.5 0 01-.683-.183l-.5-.866a.5.5 0 01.183-.683l2.165-1.25 2.57-1.484A14.99 14.99 0 0040 9.033V14.5a.5.5 0 01-.5.5h-1a.5.5 0 01-.5-.5V9.033a14.911 14.911 0 00-5.619 1.503l2.735 4.737a.5.5 0 01-.183.683l-.866.5a.5.5 0 01-.683-.183l-1.25-2.165-1.484-2.57C26.64 14.23 24 18.807 24 24c0 7.949 6.182 14.453 14 14.968V33.5a.5.5 0 01.5-.5h1a.5.5 0 01.5.5v5.468a14.913 14.913 0 005.619-1.503l-1.485-2.572-1.25-2.165a.5.5 0 01.183-.683l.866-.5a.5.5 0 01.683.183l2.734 4.735a15.082 15.082 0 004.113-4.112l-2.57-1.484-2.166-1.25a.5.5 0 01-.183-.683l.5-.866a.5.5 0 01.683-.183l2.165 1.25 2.572 1.484zm-.331.634l-.271.469c.093-.155.183-.311.27-.47zm.002-14.503c-.089-.16-.18-.32-.276-.477l.276.477zm-5.417 20.114l-.46.265c.155-.085.308-.174.46-.265zM31.757 10.862c-.165.091-.328.185-.49.282l.49-.282zM43 24a4 4 0 11-8 0 4 4 0 018 0z" fill="#BE054B"/><path d="M45.634 10.51l1.732 1-2.75 4.763a.5.5 0 01-.683.183l-.866-.5a.5.5 0 01-.183-.683l1.25-2.165 1.5-2.598zM33.384 31.727a.5.5 0 01.683-.183l.866.5a.5.5 0 01.183.683l-2.75 4.763-1.732-1 1.5-2.598 1.25-2.165z" fill="#FAFAFA"/><path d="M16 14l15.621 3.905a.5.5 0 01.379.485v11.22a.5.5 0 01-.379.485L16 34V14z" fill="#07012E"/><path d="M16 23h16v2H16v-2zM16 17l16 2v2l-16-2v-2zM16 31l16-2v-2l-16 2v2z" fill="#FAFAFA"/></svg><svg fill="none" viewBox="0 0 68 48" id="submenu-icon-2" xmlns="http://www.w3.org/2000/svg"><g clip-path="url(#bhclip0_881_5056)"><path fill-rule="evenodd" clip-rule="evenodd" d="M14.553 16.897l2.714 1.357c.13.746.326 1.47.58 2.167l-1.672 2.532a1 1 0 00.894 1.549l3.033-.182a13.01 13.01 0 001.582 1.582l-.182 3.033a1 1 0 001.55.895l2.532-1.673c.696.253 1.42.448 2.165.579l1.358 2.716a1 1 0 001.789 0l1.358-2.717a12.83 12.83 0 002.167-.58l2.535 1.674a1 1 0 001.55-.894l-.183-3.038c.57-.48 1.097-1.007 1.576-1.577l3.032.182a1 1 0 00.895-1.55l-1.672-2.53c.253-.697.448-1.42.58-2.167l2.716-1.358a1 1 0 000-1.789l-2.717-1.359a12.831 12.831 0 00-.578-2.162l1.674-2.535a1 1 0 00-.895-1.549l-3.035.182a13.01 13.01 0 00-1.58-1.58L38.5 3.07a1 1 0 00-1.549-.894l-2.533 1.672a12.833 12.833 0 00-2.164-.579L30.896.553a1 1 0 00-1.79 0L27.75 3.269c-.745.13-1.468.325-2.164.578l-2.531-1.672a1 1 0 00-1.55.895l.182 3.03a13.005 13.005 0 00-1.585 1.585l-3.035-.182a1 1 0 00-.895 1.55l1.674 2.534a12.838 12.838 0 00-.578 2.164l-2.714 1.357a1 1 0 000 1.789z" fill="#BE054B"/><path fill-rule="evenodd" clip-rule="evenodd" d="M52.044 35H11.956v7h40.088v-7zM10 33v11h44V33H10z" fill="#07012E"/><path d="M37 16a7 7 0 11-14 0 7 7 0 0114 0z" fill="#FAFAFA"/><path d="M31 33l5 2-2.106-4.211a1 1 0 00-1.788 0L31 33zM40 44l-5-2 2.106 4.211a1 1 0 001.788 0L40 44z" fill="#07012E"/><path d="M31 33l5 2 4 9-5-2-4-9zM24 33l5 2-2.106-4.211a1 1 0 00-1.788 0L24 33zM33 44l-5-2 2.106 4.211a1 1 0 001.788 0L33 44z" fill="#07012E"/><path d="M24 33l5 2 4 9-5-2-4-9zM17 33l5 2-2.106-4.211a1 1 0 00-1.788 0L17 33zM26 44l-5-2 2.106 4.211a1 1 0 001.788 0L26 44z" fill="#07012E"/><path d="M17 33l5 2 4 9-5-2-4-9zM10 33l5 2-2.106-4.211a1 1 0 00-1.788 0L10 33zM19 44l-5-2 2.106 4.211a1 1 0 001.788 0L19 44z" fill="#07012E"/><path d="M10 33l5 2 4 9-5-2-4-9zM38 33l5 2-2.106-4.211a1 1 0 00-1.788 0L38 33zM47 44l-5-2 2.106 4.211a1 1 0 001.788 0L47 44z" fill="#07012E"/><path d="M38 33l5 2 4 9-5-2-4-9zM45 33l5 2-2.106-4.211a1 1 0 00-1.788 0L45 33zM54 44l-5-2 2.106 4.211a1 1 0 001.788 0L54 44z" fill="#07012E"/><path d="M45 33l5 2 4 9-5-2-4-9z" fill="#07012E"/></g><defs><clipPath id="bhclip0_881_5056"><path fill="#fff" d="M0 0h68v48H0z"/></clipPath></defs></svg><svg fill="none" viewBox="0 0 68 48" id="submenu-icon-3" xmlns="http://www.w3.org/2000/svg"><path fill-rule="evenodd" clip-rule="evenodd" d="M41.19 24.586l2.932-.65 2.077 4.16a6.991 6.991 0 011.844.582l4.09-2.216 2.029 2.214-2.565 3.88a7.061 7.061 0 01.418 1.887l3.965 2.433-.903 2.864-4.645-.28a6.997 6.997 0 01-1.423 1.306l-.125 4.649-2.932.65-2.078-4.16a6.994 6.994 0 01-1.845-.582l-4.088 2.216-2.028-2.214 2.563-3.88a7.043 7.043 0 01-.418-1.888l-3.963-2.433.903-2.864 4.643.281a6.99 6.99 0 011.424-1.306l.126-4.65z" fill="#07012E"/><path d="M48.04 34.99a2.996 2.996 0 01-3.003 2.99 2.996 2.996 0 01-3.002-2.99A2.996 2.996 0 0145.037 32a2.996 2.996 0 013.002 2.99z" fill="#FAFAFA"/><path fill-rule="evenodd" clip-rule="evenodd" d="M26.095 0h4.544l1.15 4.605c1.048.32 2.037.77 2.95 1.329l3.931-2.36 3.213 3.214-2.467 4.11c.496.931.881 1.93 1.139 2.977l4.48 1.12v4.543l-4.657 1.164a12.85 12.85 0 01-1.253 2.852l2.274 4.219-3.358 3.061-3.816-2.536c-.94.517-1.949.92-3.01 1.192l-1.361 4.545-4.54-.21-.893-4.434a12.85 12.85 0 01-3.034-1.315l-4.125 2.223-3.062-3.357 2.48-3.732a12.853 12.853 0 01-1.227-3.122L11 18.754l.21-4.54 4.382-.882a12.85 12.85 0 011.388-3.126l-2.305-3.842 3.213-3.212 4.02 2.411c.964-.516 2-.913 3.09-1.172L26.095 0zm1.562 2L26.63 6.105l-.633.117c-1.29.24-2.502.705-3.592 1.357l-.514.307-3.694-2.216-1.005 1.004 2.154 3.589-.363.53a10.859 10.859 0 00-1.612 3.628l-.148.622-4.089.824-.065 1.419 4.095 1.227.117.59c.258 1.301.748 2.52 1.426 3.614l.338.546-2.316 3.485.957 1.05 3.79-2.044.5.33c1.06.703 2.25 1.225 3.528 1.523l.626.146.836 4.147 1.419.065 1.25-4.177.585-.12c1.263-.261 2.448-.74 3.513-1.398l.545-.337 3.569 2.371 1.05-.957-2.093-3.881.329-.5a10.853 10.853 0 001.466-3.335l.145-.582 4.29-1.072v-1.42L38.85 15.51l-.12-.626a10.856 10.856 0 00-1.33-3.49l-.305-.514 2.27-3.782-1.005-1.005L34.685 8.3l-.53-.362a10.86 10.86 0 00-3.442-1.558l-.578-.147L29.077 2h-1.42z" fill="#BE054B"/><path fill-rule="evenodd" clip-rule="evenodd" d="M28.035 23a6 6 0 100-12 6 6 0 000 12zm0 2a8 8 0 100-16 8 8 0 000 16z" fill="#BE054B"/></svg><svg fill="none" viewBox="0 0 68 48" id="submenu-icon-4" xmlns="http://www.w3.org/2000/svg"><path fill-rule="evenodd" clip-rule="evenodd" d="M34 41a4 4 0 100-8 4 4 0 000 8zm0-3a1 1 0 100-2 1 1 0 000 2zM41.868 19.373a4 4 0 106.928-4 4 4 0 00-6.928 4zm2.598-1.5a1 1 0 101.732-1 1 1 0 00-1.732 1zM26.132 19.373a4 4 0 10-6.928-4 4 4 0 006.928 4zm-2.598-1.5a1 1 0 10-1.732-1 1 1 0 001.732 1z" fill="#07012E"/><path fill-rule="evenodd" clip-rule="evenodd" d="M34 45.16c11.686 0 21.16-9.474 21.16-21.16S45.686 2.84 34 2.84 12.84 12.314 12.84 24 22.314 45.16 34 45.16zM34 47c12.703 0 23-10.297 23-23S46.703 1 34 1 11 11.297 11 24s10.297 23 23 23z" fill="#07012E"/><path d="M35.5 27.707a4 4 0 11-3-7.415 4 4 0 013 7.415z" fill="#FAFAFA"/><path fill-rule="evenodd" clip-rule="evenodd" d="M33.49 16.652l-1.028-1.558-1.581.424-.112 1.863c-.31.15-.604.322-.885.51l-1.668-.834-1.157 1.157.835 1.67c-.19.283-.36.578-.51.884l-1.865.112-.424 1.58 1.558 1.029a7.312 7.312 0 000 1.021l-1.558 1.029.424 1.58 1.863.112c.15.31.321.605.51.885l-.834 1.67 1.157 1.156 1.67-.835c.283.19.578.36.884.51l.112 1.864 1.58.424 1.029-1.557a7.3 7.3 0 001.021-.001l1.029 1.558 1.58-.424.112-1.863c.31-.15.605-.322.885-.51l1.67.834 1.157-1.157-.836-1.672a7.4 7.4 0 00.51-.882l1.864-.112.423-1.58-1.557-1.028a7.32 7.32 0 000-1.022l1.558-1.028-.424-1.581-1.863-.112a7.316 7.316 0 00-.51-.885l.833-1.669-1.157-1.157-1.67.836a7.402 7.402 0 00-.883-.51l-.112-1.865-1.58-.424-1.028 1.558a7.3 7.3 0 00-1.022 0z" fill="#BE054B"/><path fill-rule="evenodd" clip-rule="evenodd" d="M31.652 43.865a19.913 19.913 0 004.959-.038c.087-.01.173-.023.26-.035a20.226 20.226 0 003.08-.696 19.882 19.882 0 008.752-5.538 20.102 20.102 0 004.395-7.606 19.927 19.927 0 00.889-5.148 19.992 19.992 0 00-.194-3.676 20.233 20.233 0 00-.696-3.08 19.835 19.835 0 00-3.39-6.435 20.04 20.04 0 00-5.014-4.517 20.086 20.086 0 00-4.74-2.196 19.88 19.88 0 00-8.824-.694 20.23 20.23 0 00-3.08.695 19.889 19.889 0 00-8.752 5.539 20.139 20.139 0 00-3.878 6.149 19.926 19.926 0 00-1.406 6.604 20.011 20.011 0 00.194 3.677 20.226 20.226 0 00.695 3.08 19.928 19.928 0 002.191 4.742 19.974 19.974 0 004.941 5.332 20.099 20.099 0 006.012 3.073 19.884 19.884 0 003.606.768zm1.605-1.478c.492.019.988.019 1.486-.002l.484-1.401 1.983-.261.83 1.228c.488-.11.967-.237 1.437-.383l.105-1.48 1.847-.766 1.123.974c.44-.231.869-.479 1.285-.743l-.282-1.459 1.587-1.217 1.334.648c.364-.336.715-.687 1.05-1.051l-.648-1.333 1.218-1.587 1.454.281c.266-.418.514-.848.745-1.287l-.972-1.12.766-1.848 1.482-.105c.147-.47.275-.949.384-1.433l-1.231-.833.26-1.983 1.404-.485c.02-.491.019-.987-.002-1.485l-1.401-.485-.261-1.983 1.228-.83a18.379 18.379 0 00-.383-1.436l-1.48-.105-.766-1.848.974-1.123c-.23-.44-.479-.868-.742-1.285l-1.46.282-1.217-1.587.649-1.333a18.486 18.486 0 00-1.053-1.05l-1.332.647-1.587-1.217.282-1.455a18.484 18.484 0 00-1.287-.744l-1.12.971-1.848-.765-.106-1.482c-.47-.147-.949-.276-1.433-.385l-.833 1.232-1.983-.261-.485-1.403c-.491-.02-.987-.02-1.485.002l-.484 1.4-1.983.262-.83-1.228c-.488.109-.967.237-1.437.382l-.105 1.481-1.848.765-1.122-.974c-.44.231-.869.48-1.285.743l.281 1.459-1.586 1.217-1.334-.648c-.364.337-.715.688-1.05 1.052l.648 1.332-1.218 1.587-1.454-.281c-.265.418-.514.848-.745 1.287l.972 1.12-.766 1.848-1.482.105c-.147.47-.275.95-.384 1.434l1.23.832-.26 1.983-1.403.485c-.02.492-.019.987.002 1.486l1.4.484.262 1.983-1.228.83c.109.487.237.966.383 1.436l1.48.105.765 1.848-.973 1.123c.23.44.478.868.742 1.285l1.46-.282 1.217 1.587-.649 1.333c.337.365.688.715 1.052 1.05l1.333-.647 1.586 1.217-.28 1.455c.418.265.847.514 1.286.745l1.12-.972 1.848.765.105 1.482c.471.147.95.276 1.434.385l.832-1.231 1.983.26.485 1.404z" fill="#07012E"/><path d="M38 24a4 4 0 11-8 0 4 4 0 018 0z" fill="#FAFAFA"/></svg><svg fill="none" viewBox="0 0 68 48" id="submenu-icon-5" xmlns="http://www.w3.org/2000/svg"><path fill-rule="evenodd" clip-rule="evenodd" d="M4 18v24h20V18H4zm-1-2a1 1 0 00-1 1v26a1 1 0 001 1h22a1 1 0 001-1V17a1 1 0 00-1-1H3z" fill="#07012E"/><path fill-rule="evenodd" clip-rule="evenodd" d="M26 11v24h2V11h-2zm-1-2a1 1 0 00-1 1v26a1 1 0 001 1h4a1 1 0 001-1V10a1 1 0 00-1-1h-4z" fill="#07012E"/><path fill-rule="evenodd" clip-rule="evenodd" d="M29 13a1 1 0 00-1 1v18a1 1 0 001 1h2a1 1 0 001-1V14a1 1 0 00-1-1h-2z" fill="#07012E"/><path fill-rule="evenodd" clip-rule="evenodd" d="M33 7v27h31V7H33zm-1-2a1 1 0 00-1 1v29a1 1 0 001 1h33a1 1 0 001-1V6a1 1 0 00-1-1H32z" fill="#07012E"/><path fill-rule="evenodd" clip-rule="evenodd" d="M62 7v27h2V7h-2zm-1-2a1 1 0 00-1 1v29a1 1 0 001 1h4a1 1 0 001-1V6a1 1 0 00-1-1h-4z" fill="#07012E"/><path fill-rule="evenodd" clip-rule="evenodd" d="M14 27a5 5 0 100 10 5 5 0 000-10zm-7 5a7 7 0 1114 0 7 7 0 01-14 0z" fill="#BE054B"/><path d="M17 32a3 3 0 11-6 0 3 3 0 016 0z" fill="#FAFAFA"/><path fill-rule="evenodd" clip-rule="evenodd" d="M14 30a2 2 0 100 4 2 2 0 000-4zm-4 2a4 4 0 118 0 4 4 0 01-8 0z" fill="#BE054B"/><path fill-rule="evenodd" clip-rule="evenodd" d="M12.653 24.416c.016-.09.046-.18.09-.27l.292-.59a1 1 0 011.792 0l.292.59c.044.09.074.18.09.27a7.528 7.528 0 013.126 1.311.998.998 0 01.262-.134l.622-.209c.778-.262 1.518.486 1.258 1.271l-.207.628a1.018 1.018 0 01-.132.266c.65.924 1.103 2 1.297 3.164.096.016.193.047.288.095l.588.297a1 1 0 010 1.785l-.588.297a1.013 1.013 0 01-.288.095 7.69 7.69 0 01-1.297 3.164c.055.078.1.167.133.266l.207.628c.26.785-.48 1.533-1.258 1.271l-.622-.21a.998.998 0 01-.263-.133 7.53 7.53 0 01-3.126 1.31 1.01 1.01 0 01-.09.27l-.292.59a1 1 0 01-1.792 0l-.292-.59a1.012 1.012 0 01-.09-.269 7.53 7.53 0 01-3.128-1.31c-.078.055-.165.1-.262.133l-.621.21c-.778.261-1.518-.486-1.259-1.272l.207-.628a1.02 1.02 0 01.132-.264 7.69 7.69 0 01-1.299-3.166 1.014 1.014 0 01-.286-.095l-.588-.297a1 1 0 010-1.785l.588-.297a1.01 1.01 0 01.286-.095 7.69 7.69 0 011.299-3.166 1.019 1.019 0 01-.131-.264l-.207-.628c-.26-.785.48-1.533 1.258-1.27l.622.208a1 1 0 01.26.133 7.528 7.528 0 013.13-1.31zm1.277 13.777c3.387 0 6.134-2.774 6.134-6.196 0-3.422-2.747-6.196-6.134-6.196-3.387 0-6.134 2.774-6.134 6.196 0 3.422 2.747 6.197 6.134 6.197z" fill="#BE054B"/></svg><svg fill="none" viewBox="0 0 44 44" id="to-top-icon" xmlns="http://www.w3.org/2000/svg"><path d="M44 22c0 12.15-9.85 22-22 22S0 34.15 0 22 9.85 0 22 0s22 9.85 22 22z" fill="#FAFAFA"/><path fill-rule="evenodd" clip-rule="evenodd" d="M22 43c11.598 0 21-9.402 21-21S33.598 1 22 1 1 10.402 1 22s9.402 21 21 21zm0 1c12.15 0 22-9.85 22-22S34.15 0 22 0 0 9.85 0 22s9.85 22 22 22z" fill="#07012E"/><path d="M22.787 14.886L10.214 26.714l-.785-.739L22 14.147l.786.74z" fill="#07012E"/><path d="M33.786 26.71L21.213 14.882l.786-.739 12.573 11.828-.786.74z" fill="#07012E"/></svg></svg>